<svg width="552" height="552" viewBox="0 0 552 552" fill="none" xmlns="http://www.w3.org/2000/svg">
<rect x="225" y="451" width="51" height="57" stroke="white" stroke-width="30"/>
<rect x="325" y="451" width="51" height="57" stroke="white" stroke-width="30"/>
<rect x="209" y="492" width="72" height="34" rx="17" stroke="white" stroke-width="30"/>
<rect x="315" y="492" width="69" height="34" rx="17" stroke="white" stroke-width="30"/>
<path d="M382 405.5L211.5 401.5C209.9 418.7 214.5 447 217 459H282.5L291 439.75H308L315 459H379L382 405.5Z" stroke="white" stroke-width="30"/>
<path d="M427.493 192.02C431.356 192.161 434.374 195.407 434.233 199.27C434.129 202.128 433.29 209.8 430.092 217.22C427.967 222.152 423.949 228.905 420.71 234.151C417.288 239.691 414.244 243.86 412.407 246.259C410.611 248.604 409.761 249.535 408.749 250.378C408.172 250.858 407.405 251.449 406.361 251.973C402.905 253.705 398.699 252.308 396.966 248.852C395.285 245.498 396.551 241.437 399.787 239.617C399.799 239.603 399.815 239.586 399.833 239.566C400.042 239.332 400.466 238.823 401.292 237.745C402.909 235.633 405.674 231.854 408.798 226.795C412.105 221.441 415.577 215.526 417.235 211.679C419.541 206.328 420.179 200.495 420.242 198.761C420.383 194.897 423.629 191.879 427.493 192.02Z" stroke="white" stroke-width="30" stroke-linecap="round"/>
<path d="M97.4996 247.999L164.5 307.499L209 273.5C192.167 257.167 157.5 223.7 153.5 220.5C148.5 216.5 139.5 210 139.5 207.5V200.5C139.5 196.5 140 181.5 138.5 175C137 168.5 131.5 165 125 167.5C119.8 169.5 117.167 181 116.5 186.5L108 178C104.5 174.5 94 165 88.4996 165C82.9991 165 78.5 168.5 78.5 175.5C78.5 181.1 84.1667 187.166 87 189.499C83.5 188.499 75.2 186.799 70 187.999C63.5 189.499 58 192.499 60.5 201.999C62.5 209.599 75.6667 214.832 82 216.499C77.8332 217.499 68.9996 219.599 66.9996 219.999C64.4996 220.499 54.9996 223.499 58.9996 232.499C62.9996 241.499 81.9996 239.499 88.4996 242.499C93.6996 244.899 96.6662 247.165 97.4996 247.999Z" stroke="white" stroke-width="30"/>
<path d="M107.105 224.173C106.659 221.764 106.206 218.513 106.352 215.613C106.493 212.818 107.11 209.449 107.658 206.879C107.937 205.572 108.207 204.43 108.407 203.614C108.508 203.206 108.591 202.877 108.65 202.649C108.679 202.535 108.702 202.446 108.718 202.384C108.726 202.354 108.733 202.33 108.738 202.313C108.74 202.305 108.742 202.299 108.743 202.294C108.744 202.292 108.744 202.289 108.744 202.288L108.745 202.286L108.745 202.285L108.789 202.137C109.276 200.627 110.868 199.748 112.419 200.163C114.019 200.591 114.969 202.236 114.541 203.837L114.54 203.837L114.54 203.839C114.539 203.841 114.538 203.846 114.537 203.852C114.533 203.865 114.528 203.885 114.521 203.911C114.508 203.963 114.487 204.043 114.46 204.146C114.406 204.355 114.329 204.661 114.234 205.046C114.045 205.816 113.789 206.896 113.526 208.129C112.991 210.638 112.461 213.621 112.345 215.916C112.234 218.107 112.584 220.809 113.004 223.081C113.21 224.192 113.423 225.153 113.585 225.834C113.665 226.174 113.733 226.443 113.779 226.623C113.802 226.713 113.82 226.781 113.831 226.825C113.837 226.847 113.842 226.862 113.844 226.872C113.846 226.877 113.846 226.88 113.846 226.882L113.847 226.883L113.846 226.883C114.282 228.481 113.34 230.129 111.742 230.565C110.144 231.002 108.494 230.06 108.058 228.461L108.058 228.46L108.055 228.451C108.054 228.447 108.053 228.44 108.05 228.432C108.046 228.415 108.04 228.392 108.032 228.362C108.016 228.304 107.995 228.22 107.967 228.114C107.913 227.902 107.837 227.598 107.747 227.219C107.568 226.463 107.332 225.402 107.105 224.173Z" stroke="white" stroke-width="30" stroke-linecap="round"/>
<path d="M300.5 404.5H212.5L221 310.999C219.5 310.166 220 309.699 234 314.499C248 319.299 333.167 319.5 374 319C375.5 318.666 379.1 319.8 381.5 327C383.9 334.2 384.833 383.666 385 407.5C363 406.5 315.3 404.5 300.5 404.5Z" stroke="white" stroke-width="30"/>
<path d="M223.5 364L155.5 299L197.5 264L260 314.5L223.5 364Z" stroke="white" stroke-width="30"/>
<path d="M214.499 402.042C214.498 403.699 213.156 405.041 211.499 405.041C209.842 405.041 208.499 403.698 208.499 402.042L208.499 402.04L208.499 402.03C208.499 402.023 208.499 402.014 208.499 402.001C208.499 401.977 208.5 401.941 208.5 401.895C208.5 401.802 208.5 401.664 208.502 401.484C208.505 401.124 208.511 400.592 208.523 399.898C208.547 398.508 208.594 396.468 208.689 393.849C208.879 388.612 209.257 381.055 210.011 371.756C210.765 362.45 211.646 354.91 212.339 349.688C212.685 347.078 212.985 345.046 213.199 343.663C213.306 342.971 213.391 342.441 213.45 342.083C213.479 341.903 213.503 341.766 213.518 341.673C213.526 341.626 213.533 341.591 213.537 341.567C213.539 341.555 213.54 341.545 213.541 341.538C213.542 341.535 213.543 341.532 213.543 341.53L213.543 341.527C213.828 339.895 215.383 338.801 217.015 339.086C218.647 339.371 219.739 340.925 219.455 342.558L219.453 342.562C219.453 342.567 219.451 342.574 219.45 342.584C219.446 342.603 219.441 342.635 219.434 342.676C219.42 342.76 219.398 342.888 219.37 343.058C219.314 343.398 219.232 343.908 219.128 344.579C218.921 345.922 218.627 347.911 218.286 350.477C217.605 355.609 216.737 363.048 215.991 372.242C215.245 381.442 214.872 388.907 214.685 394.066C214.592 396.645 214.546 398.647 214.523 400.001C214.511 400.677 214.505 401.192 214.502 401.535C214.5 401.707 214.499 401.836 214.499 401.92C214.499 401.963 214.499 401.994 214.499 402.014C214.499 402.025 214.499 402.032 214.499 402.037L214.499 402.042Z" stroke="white" stroke-width="30" stroke-linecap="round"/>
<path d="M174.925 228.775C178.79 228.846 181.866 232.038 181.794 235.904C181.784 236.452 181.709 236.984 181.687 237.149C181.648 237.435 181.598 237.756 181.546 238.077C181.441 238.725 181.301 239.53 181.152 240.368C180.857 242.037 180.526 243.874 180.278 245.356C180.275 245.404 180.27 245.487 180.266 245.611C180.254 245.94 180.248 246.426 180.255 247.086C180.268 248.402 180.331 250.269 180.472 252.705C180.671 256.15 182.118 259.624 184.556 264.035C187.926 269.337 190.161 272.435 190.805 273.176C191.01 273.393 191.044 273.413 191.482 273.832C194.279 276.501 194.383 280.932 191.715 283.729C189.046 286.526 184.615 286.63 181.818 283.961C181.65 283.8 181.147 283.347 180.53 282.69L180.479 282.636L180.431 282.581C178.924 280.905 176.02 276.715 172.623 271.362L172.513 271.189L172.414 271.01C169.731 266.179 166.89 260.329 166.495 253.514C166.345 250.923 166.272 248.825 166.256 247.229C166.242 245.855 166.257 244.324 166.44 243.218L166.895 240.58C167.058 239.663 167.223 238.743 167.366 237.931C167.514 237.095 167.638 236.378 167.726 235.839C167.768 235.58 167.796 235.396 167.812 235.28C168.071 231.587 171.182 228.705 174.925 228.775ZM167.808 235.383C167.803 235.457 167.798 235.545 167.796 235.644C167.798 235.556 167.803 235.47 167.808 235.383Z" stroke="white" stroke-width="30" stroke-linecap="round"/>
<path d="M198.5 304.5C164 271 167.5 252.5 172.5 119L395.5 107.5C400 135.5 408.6 198 407 224C405 256.5 392 295.5 359.5 314.5C327 333.5 233 338 198.5 304.5Z" stroke="white" stroke-width="30"/>
<path d="M256 211.496C256 231.996 247 242.996 227.5 242.996C208 242.996 199 229.996 199 211.496C199 192.996 207.5 179.996 227.5 179.996C247.5 179.996 256 190.996 256 211.496Z" stroke="white" stroke-width="30"/>
<path d="M347 212.496C347 232.996 337.684 243.996 317.5 243.996C297.316 243.996 288 230.996 288 212.496C288 193.996 296.798 180.996 317.5 180.996C338.202 180.996 347 191.996 347 212.496Z" stroke="white" stroke-width="30"/>
<path d="M325 211.996C325 223.06 321.053 228.996 312.5 228.996C303.947 228.996 300 221.98 300 211.996C300 202.012 303.728 194.996 312.5 194.996C321.272 194.996 325 200.933 325 211.996Z" stroke="white" stroke-width="30"/>
<path d="M245 212C245 223.063 241.053 229 232.5 229C223.947 229 220 221.984 220 212C220 202.016 223.728 195 232.5 195C241.272 195 245 200.937 245 212Z" stroke="white" stroke-width="30"/>
<path d="M230.606 172.008C232.534 172.144 234.207 170.692 234.344 168.764C234.48 166.836 233.028 165.162 231.101 165.025L230.861 168.404C231.09 165.177 231.099 165.033 231.099 165.026L231.097 165.025C231.096 165.025 231.095 165.026 231.093 165.026C231.091 165.025 231.087 165.025 231.084 165.024C231.077 165.024 231.067 165.023 231.057 165.023C231.035 165.021 231.006 165.019 230.97 165.017C230.899 165.013 230.8 165.008 230.676 165.003C230.427 164.992 230.076 164.98 229.637 164.975C228.761 164.964 227.53 164.978 226.067 165.076C223.166 165.271 219.231 165.802 215.323 167.197C211.571 168.536 208.459 170.147 206.282 171.423C205.19 172.062 204.326 172.622 203.724 173.03C203.424 173.234 203.188 173.401 203.022 173.52C202.939 173.579 202.873 173.627 202.826 173.662C202.802 173.679 202.783 173.694 202.768 173.705C202.761 173.711 202.754 173.715 202.749 173.719C202.747 173.721 202.745 173.723 202.743 173.724C202.742 173.725 202.741 173.726 202.74 173.726L202.739 173.728C202.74 173.73 202.797 173.807 204.632 176.227L202.738 173.728C201.198 174.896 200.896 177.092 202.064 178.632C203.232 180.171 205.425 180.473 206.965 179.308L206.964 179.308C206.965 179.307 206.965 179.307 206.966 179.306L206.967 179.306L206.966 179.305C206.97 179.302 206.978 179.298 206.988 179.292C207.011 179.274 207.052 179.243 207.11 179.202C207.226 179.118 207.408 178.99 207.652 178.824C208.141 178.493 208.876 178.016 209.821 177.462C211.717 176.351 214.429 174.949 217.676 173.79C220.767 172.686 224.009 172.23 226.535 172.061C227.785 171.977 228.829 171.965 229.551 171.974C229.911 171.978 230.189 171.988 230.37 171.996C230.46 172 230.527 172.004 230.566 172.006C230.585 172.007 230.598 172.007 230.605 172.007L230.605 172.008L230.606 172.008ZM230.606 172.008L230.607 172.009L230.609 172.009L230.611 172.008C230.609 172.008 230.608 172.008 230.606 172.008Z" stroke="white" stroke-width="30" stroke-linecap="round"/>
<path d="M316.581 171.454C314.678 171.525 313.008 170.127 312.85 168.332C312.692 166.537 314.107 165.024 316.01 164.953L316.287 168.098C316.023 165.094 316.012 164.959 316.012 164.953L316.013 164.953C316.014 164.953 316.016 164.953 316.017 164.953C316.02 164.953 316.023 164.952 316.026 164.952C316.033 164.952 316.042 164.951 316.053 164.951C316.074 164.95 316.103 164.95 316.138 164.949C316.209 164.947 316.307 164.945 316.429 164.944C316.675 164.941 317.022 164.941 317.455 164.948C318.32 164.964 319.537 165.013 320.984 165.146C323.852 165.412 327.746 166.02 331.624 167.429C335.347 168.783 338.44 170.369 340.606 171.618C341.692 172.244 342.553 172.79 343.152 173.186C343.452 173.384 343.686 173.546 343.852 173.662C343.934 173.719 344 173.765 344.047 173.799C344.071 173.816 344.09 173.83 344.104 173.841C344.112 173.846 344.118 173.851 344.124 173.855C344.126 173.856 344.128 173.858 344.13 173.86C344.131 173.86 344.132 173.861 344.133 173.861L344.134 173.863C344.133 173.865 344.077 173.934 342.293 176.129L344.135 173.863C345.671 174.993 345.994 177.042 344.858 178.439C343.723 179.835 341.559 180.052 340.024 178.924L340.025 178.924C340.024 178.924 340.024 178.923 340.023 178.922L340.022 178.922L340.023 178.921C340.019 178.919 340.011 178.915 340.002 178.908C339.978 178.891 339.937 178.861 339.88 178.821C339.764 178.74 339.583 178.616 339.34 178.455C338.853 178.133 338.121 177.668 337.181 177.126C335.294 176.039 332.599 174.657 329.376 173.486C326.31 172.371 323.101 171.853 320.603 171.622C319.367 171.507 318.335 171.466 317.623 171.453C317.267 171.447 316.992 171.447 316.814 171.449C316.724 171.451 316.659 171.452 316.62 171.453C316.602 171.454 316.589 171.453 316.582 171.453L316.582 171.454L316.581 171.454ZM316.581 171.454L316.58 171.455L316.578 171.455L316.576 171.454C316.577 171.454 316.579 171.454 316.581 171.454Z" stroke="white" stroke-width="30" stroke-linecap="round"/>
<path d="M371.937 257.261C370.013 267.857 361.238 274.677 352 273C342.762 271.323 336.56 261.783 338.484 251.187C340.408 240.59 350.264 234.321 359.501 235.999C368.739 237.676 373.709 247.5 371.937 257.261Z" stroke="white" stroke-width="30"/>
<path d="M209.107 244.207C214.135 253.137 211.811 263.485 203.975 267.898C196.139 272.31 185.758 269.116 180.73 260.187C175.702 251.258 179.159 240.652 186.995 236.24C194.831 231.827 204.475 235.982 209.107 244.207Z" stroke="white" stroke-width="30"/>
<path d="M265.499 225C269.614 225 272.565 227.078 274.306 228.818C275.188 229.701 275.84 230.571 276.275 231.223C276.494 231.552 276.666 231.837 276.789 232.053C276.851 232.161 276.902 232.253 276.941 232.326C276.96 232.363 276.976 232.395 276.99 232.422C276.997 232.435 277.004 232.447 277.01 232.458C277.013 232.463 277.015 232.469 277.018 232.474C277.019 232.476 277.02 232.479 277.021 232.481C277.021 232.483 277.022 232.484 277.023 232.484C277.023 232.486 276.98 232.509 273.228 234.386L277.025 232.487C278.136 234.71 277.235 237.414 275.012 238.525C272.796 239.633 270.104 238.741 268.986 236.534L268.993 236.55C268.989 236.542 268.983 236.532 268.975 236.518C268.942 236.46 268.879 236.354 268.786 236.215C268.596 235.929 268.31 235.549 267.943 235.182C267.183 234.422 266.385 234 265.499 234C264.778 234 264.019 234.381 263.204 235.277C262.822 235.698 262.521 236.136 262.317 236.473C262.217 236.636 262.148 236.764 262.11 236.838C262.091 236.874 262.08 236.896 262.077 236.901C262.078 236.9 262.079 236.898 262.08 236.896C262.082 236.892 262.084 236.888 262.086 236.883C262.087 236.88 262.089 236.876 262.091 236.873C262.092 236.872 262.092 236.87 262.093 236.868C262.093 236.867 262.095 236.866 262.095 236.865L262.094 236.864C261.065 239.125 258.399 240.125 256.137 239.097C253.874 238.068 252.874 235.4 253.903 233.138L257.922 234.965C253.941 233.155 253.903 233.136 253.903 233.135C253.904 233.134 253.905 233.133 253.905 233.132C253.906 233.13 253.907 233.127 253.908 233.125C253.911 233.12 253.913 233.115 253.915 233.109C253.92 233.099 253.926 233.086 253.933 233.072C253.946 233.045 253.961 233.012 253.98 232.975C254.016 232.899 254.064 232.803 254.123 232.689C254.241 232.462 254.406 232.16 254.619 231.809C255.04 231.114 255.677 230.177 256.544 229.223C258.229 227.369 261.221 225 265.499 225Z" stroke="white" stroke-width="30" stroke-linecap="round"/>
<path d="M324.999 264.001C324.499 280.501 311.999 311.001 275.499 312.001C231.999 313.502 221.499 276 221.999 266C222.499 256 226.499 254.001 235.499 252.001C244.499 250.001 302.499 249.501 312.499 251.001C322.499 252.501 324.999 257.501 324.999 264.001Z" stroke="white" stroke-width="30"/>
<mask id="mask0_1303_2005" style="mask-type:alpha" maskUnits="userSpaceOnUse" x="206" y="235" width="134" height="93">
<path d="M324.999 264.001C324.499 280.501 311.999 311.001 275.499 312.001C231.999 313.502 221.499 276 221.999 266C222.499 256 226.499 254.001 235.499 252.001C244.499 250.001 302.499 249.501 312.499 251.001C322.499 252.501 324.999 257.501 324.999 264.001Z" stroke="white" stroke-width="30"/>
</mask>
<g mask="url(#mask0_1303_2005)">
<path d="M328.403 317.435C325.684 331.535 305.016 339.404 282.24 335.012C259.463 330.62 241.176 316 245.922 301.53C252 282.999 268.415 278.355 292.501 282.999C315.277 287.392 331.122 303.336 328.403 317.435Z" stroke="white" stroke-width="30"/>
<path d="M305.526 246.455C302.807 260.554 283.819 268.748 263.115 264.755C242.411 260.763 225.975 246.5 230.55 231.997C236.408 213.424 251.461 208.517 273.356 212.739C294.06 216.731 308.245 232.355 305.526 246.455Z" stroke="white" stroke-width="30"/>
</g>
<path d="M153 95C153 62.75 187 31.5 213.5 31.5C240 31.5 365.5 31.5 365.5 31.5C399.466 31.5 427 58.9226 427 92.75C427 126.577 399.466 154 365.5 154H213.5C179.534 154 153 127.25 153 95Z" stroke="white" stroke-width="30"/>
<rect x="395.219" y="47.3789" width="48" height="29" rx="14.5" transform="rotate(-3.24196 395.219 47.3789)" stroke="white" stroke-width="30"/>
<rect x="414.992" y="21" width="48" height="29" rx="14.5" transform="rotate(88.5961 414.992 21)" stroke="white" stroke-width="30"/>
<path d="M402.415 63.7887C415.353 61.3748 427.799 69.9063 430.213 82.8443L451.407 196.442L404.554 205.184L383.36 91.5858C380.946 78.6478 389.477 66.2026 402.415 63.7887V63.7887Z" stroke="white" stroke-width="30"/>
<path d="M187.681 65.1331C194.86 56.8493 202.857 53.086 209.13 51.4281C212.249 50.6036 214.93 50.3021 216.864 50.2093C217.833 50.1629 218.62 50.1683 219.186 50.1879C219.47 50.1977 219.699 50.2117 219.869 50.2238C219.954 50.2299 220.025 50.2355 220.08 50.2404C220.108 50.2428 220.131 50.2447 220.151 50.2466C220.161 50.2476 220.17 50.2493 220.178 50.2501C220.182 50.2505 220.186 50.2504 220.19 50.2508C220.191 50.2509 220.194 50.2514 220.195 50.2514C220.196 50.2571 220.183 50.4091 219.731 54.7006L220.199 50.2514C222.67 50.5115 224.463 52.7262 224.203 55.1977C223.943 57.6681 221.731 59.46 219.261 59.2021L219.262 59.2028C219.263 59.2029 219.265 59.2027 219.266 59.2028C219.267 59.203 219.269 59.2041 219.27 59.2042C219.26 59.2034 219.247 59.202 219.229 59.2008C219.164 59.1961 219.044 59.1887 218.874 59.1828C218.535 59.171 217.997 59.1658 217.296 59.1994C215.89 59.2667 213.847 59.4907 211.43 60.1295C206.629 61.3986 200.302 64.3124 194.482 71.0282C188.439 78.0004 185.931 84.0321 184.891 88.1348C184.368 90.1979 184.209 91.8056 184.171 92.8381C184.152 93.3546 184.164 93.7284 184.176 93.9436C184.182 94.0511 184.188 94.1197 184.19 94.1459C184.192 94.1588 184.192 94.1614 184.191 94.1535C184.19 94.1496 184.19 94.1428 184.189 94.1335C184.188 94.1289 184.188 94.1236 184.187 94.1176L184.185 94.1031H184.183C184.528 96.5618 182.817 98.8351 180.358 99.1827C177.897 99.5306 175.621 97.8179 175.273 95.3571L179.7 94.7315C175.305 95.3529 175.272 95.3544 175.271 95.3516L175.269 95.333C175.268 95.3241 175.266 95.3143 175.265 95.304C175.262 95.2833 175.259 95.2593 175.256 95.2328C175.25 95.18 175.242 95.1157 175.235 95.0402C175.22 94.8885 175.203 94.6914 175.19 94.4511C175.163 93.9707 175.147 93.3168 175.177 92.5073C175.236 90.8873 175.477 88.646 176.168 85.9231C177.554 80.4526 180.724 73.1608 187.681 65.1331Z" stroke="white" stroke-width="30" stroke-linecap="round"/>
<ellipse cx="397.006" cy="213.195" rx="30" ry="19" transform="rotate(-42.018 397.006 213.195)" stroke="white" stroke-width="30"/>
<path d="M472.5 248.002L422.5 312.502C407.333 301.334 377.2 278.5 378 276.5C378.8 274.5 413 232.667 430 212C429.333 203.833 428.6 185.9 431 179.5C434 171.5 438 166.501 445 169C450.6 170.999 453 179.5 453.5 183.5C457.167 178.667 465.6 168.501 470 166.501C475.5 164.001 482 165.001 484 172.001C485.6 177.601 478.667 186.334 475 190C478.5 187.834 486.8 183.7 492 184.5C498.5 185.5 504 189.5 503.5 198C503.1 204.8 491.333 213.835 485.5 217.502C489 217.168 496.8 217.102 500 219.502C504 222.502 505 228.502 502 234.002C499 239.502 481.5 241.502 478 243.002C475.2 244.202 473.167 246.835 472.5 248.002Z" stroke="white" stroke-width="30"/>
<path d="M447.256 201.493C445.879 199.425 446.437 196.633 448.505 195.255C450.573 193.877 453.367 194.436 454.745 196.504L451.131 198.913C454.571 196.62 454.737 196.51 454.745 196.505L454.747 196.506L454.753 196.516C454.757 196.522 454.762 196.529 454.767 196.537C454.779 196.554 454.793 196.577 454.812 196.605C454.849 196.662 454.9 196.741 454.964 196.841C455.092 197.04 455.269 197.322 455.483 197.674C455.91 198.374 456.489 199.36 457.103 200.52C458.285 202.754 459.783 205.968 460.413 209.119C461.005 212.077 461.126 215.697 461.126 218.375C461.126 219.756 461.093 220.971 461.06 221.841C461.044 222.277 461.027 222.63 461.014 222.877C461.008 223 461.003 223.097 460.999 223.165C460.997 223.199 460.995 223.227 460.994 223.246C460.993 223.255 460.993 223.263 460.992 223.269C460.992 223.272 460.992 223.275 460.992 223.277L460.992 223.279L460.992 223.28C460.992 223.28 460.992 223.28 456.501 222.999L460.992 223.281C460.837 225.761 458.7 227.646 456.22 227.491C453.816 227.34 451.973 225.33 452.001 222.95L452.01 222.719V222.707C452.01 222.696 452.012 222.677 452.013 222.652C452.016 222.6 452.021 222.521 452.027 222.416C452.037 222.206 452.052 221.893 452.067 221.502C452.096 220.717 452.126 219.619 452.126 218.376C452.126 215.805 451.997 212.926 451.589 210.884C451.219 209.035 450.216 206.749 449.149 204.731C448.637 203.766 448.154 202.939 447.799 202.358C447.623 202.069 447.48 201.843 447.385 201.694C447.337 201.62 447.302 201.565 447.28 201.531C447.269 201.515 447.261 201.503 447.257 201.497C447.256 201.496 447.256 201.494 447.256 201.493Z" stroke="white" stroke-width="30" stroke-linecap="round"/>
<path d="M336 330.5L388 263.5C385.5 268.333 389.5 282.5 400.5 291.5C414.931 303.307 426.5 303 430.5 302L377.5 368L336 330.5Z" stroke="white" stroke-width="30"/>
<rect x="214.93" y="450" width="46" height="16" rx="8" transform="rotate(38.3634 214.93 450)" stroke="white" stroke-width="30"/>
<circle cx="201.5" cy="435.5" r="15.5" stroke="white" stroke-width="30"/>
<circle cx="189.5" cy="457.5" r="15.5" stroke="white" stroke-width="30"/>
<circle cx="204.5" cy="476.5" r="15.5" stroke="white" stroke-width="30"/>
<circle cx="208.5" cy="466.5" r="15.5" stroke="white" stroke-width="30"/>
<circle cx="220.5" cy="442.5" r="21.5" stroke="white" stroke-width="30"/>
<path d="M265.162 403.452C257.495 403.952 244.662 408.252 254.662 421.452C262.661 427.951 263.162 427.453 272.662 430.453C282.162 433.453 274.662 410.953 276.662 405.952C277.862 402.352 269.495 402.785 265.162 403.452Z" stroke="white" stroke-width="30"/>
<rect x="270" y="385" width="30" height="47" rx="15" stroke="white" stroke-width="30"/>
<ellipse cx="297" cy="453" rx="43" ry="38" stroke="white" stroke-width="30"/>
<path d="M291.74 438.878C294.907 436.087 298.102 434.205 300.505 433.019C301.71 432.424 302.728 431.998 303.459 431.716C303.825 431.575 304.12 431.47 304.332 431.397C304.438 431.36 304.525 431.332 304.588 431.312C304.62 431.302 304.646 431.294 304.667 431.287C304.677 431.284 304.686 431.28 304.693 431.278C304.697 431.277 304.701 431.276 304.704 431.275C304.705 431.275 304.706 431.274 304.707 431.274L304.709 431.273C304.711 431.274 304.726 431.324 305.466 433.747L304.711 431.273C306.56 430.709 308.516 431.75 309.08 433.599C309.643 435.445 308.606 437.397 306.764 437.965L306.741 437.973C306.715 437.981 306.668 437.996 306.601 438.019C306.468 438.065 306.255 438.14 305.977 438.247C305.419 438.462 304.597 438.805 303.604 439.295C301.609 440.281 298.965 441.841 296.367 444.13C293.698 446.481 292.228 448.352 291.452 449.537C291.063 450.129 290.846 450.555 290.739 450.788C290.685 450.904 290.658 450.974 290.651 450.993C290.652 450.991 290.653 450.988 290.654 450.985C290.656 450.977 290.659 450.966 290.664 450.952C290.666 450.945 290.669 450.937 290.671 450.928L290.677 450.908C290.678 450.906 290.678 450.904 290.678 450.903L290.677 450.903C290.136 452.757 288.198 453.823 286.343 453.284C284.486 452.745 283.419 450.804 283.958 448.948L286.959 449.819C283.982 448.954 283.958 448.945 283.958 448.943C283.958 448.943 283.959 448.941 283.96 448.939C283.961 448.937 283.961 448.934 283.962 448.931C283.964 448.926 283.966 448.92 283.968 448.914C283.971 448.902 283.975 448.889 283.979 448.875C283.987 448.848 283.998 448.818 284.009 448.784C284.031 448.717 284.059 448.638 284.093 448.547C284.161 448.363 284.255 448.132 284.382 447.857C284.637 447.305 285.022 446.577 285.597 445.7C286.747 443.945 288.644 441.606 291.74 438.878Z" stroke="white" stroke-width="30" stroke-linecap="round" stroke-linejoin="round"/>
<path d="M110.743 306.387C120.762 324.437 125.927 334.509 134.068 352.024C136.396 357.033 134.223 362.98 129.215 365.308C124.207 367.635 118.259 365.462 115.931 360.454C108.011 343.414 103.068 333.769 93.2563 316.092C90.5762 311.263 92.3182 305.176 97.1471 302.496C101.976 299.816 108.063 301.558 110.743 306.387Z" stroke="white" stroke-width="30" stroke-linecap="round"/>
<path d="M97.7576 329.749C111.106 335.496 118.336 339.022 130.245 345.672C134.826 348.23 136.466 354.017 133.909 358.598C131.351 363.179 125.563 364.819 120.982 362.261C109.697 355.959 103.056 352.717 90.2436 347.201C85.4247 345.126 83.2003 339.538 85.2751 334.719C87.3499 329.9 92.9386 327.675 97.7576 329.749Z" stroke="white" stroke-width="30" stroke-linecap="round"/>
<path d="M137.442 317.79C137.765 332.319 137.565 340.361 136.468 353.956C136.047 359.186 131.466 363.084 126.236 362.662C121.006 362.241 117.108 357.659 117.53 352.429C118.569 339.546 118.757 332.158 118.447 318.212C118.33 312.967 122.488 308.62 127.733 308.503C132.978 308.387 137.326 312.544 137.442 317.79Z" stroke="white" stroke-width="30" stroke-linecap="round"/>
<path d="M158 359.002C155 351.002 141 332.002 120 342.502C117 344.001 106.6 349.1 107 363.5C107.5 381.5 120 396 137 414.5C154 433 168.5 440.5 173 437.5C177.5 434.5 177 425 175.5 414.5C174 404 161 367.002 158 359.002Z" stroke="white" stroke-width="30"/>
<path d="M134.131 363.039C139.172 359.855 143.207 358.337 146.107 357.632C147.554 357.28 148.71 357.133 149.555 357.08C149.977 357.054 150.32 357.051 150.582 357.057C150.713 357.061 150.825 357.066 150.915 357.072C150.959 357.075 150.999 357.077 151.033 357.08C151.051 357.082 151.067 357.085 151.081 357.086C151.088 357.087 151.096 357.086 151.102 357.087C151.106 357.087 151.109 357.089 151.112 357.089C151.114 357.089 151.115 357.089 151.116 357.089C151.118 357.089 151.12 357.09 150.784 360.183L151.121 357.09C153.043 357.299 154.431 359.027 154.222 360.948C154.019 362.81 152.392 364.17 150.543 364.063L150.381 364.05C150.386 364.051 150.391 364.052 150.396 364.052C150.405 364.053 150.414 364.054 150.421 364.054C150.435 364.056 150.444 364.056 150.448 364.056C150.443 364.056 150.432 364.055 150.414 364.055C150.353 364.054 150.212 364.053 149.994 364.067C149.56 364.094 148.81 364.179 147.76 364.435C145.663 364.945 142.327 366.142 137.869 368.957C133.336 371.82 131.076 373.988 129.991 375.282C129.453 375.924 129.212 376.341 129.125 376.512C129.112 376.538 129.101 376.558 129.094 376.573C128.578 378.302 126.813 379.374 125.017 378.993C123.126 378.592 121.918 376.734 122.319 374.843L125.441 375.505C122.391 374.858 122.321 374.84 122.32 374.836L122.326 374.813C122.328 374.803 122.329 374.793 122.332 374.782C122.337 374.761 122.342 374.738 122.348 374.716C122.359 374.67 122.373 374.621 122.387 374.569C122.417 374.465 122.453 374.349 122.499 374.222C122.591 373.966 122.718 373.665 122.894 373.322C123.245 372.636 123.788 371.785 124.626 370.785C126.295 368.794 129.164 366.176 134.131 363.039ZM129.134 376.431C129.136 376.421 129.139 376.412 129.142 376.402C129.146 376.386 129.149 376.369 129.153 376.351C129.156 376.343 129.158 376.333 129.16 376.324C129.161 376.319 129.161 376.314 129.163 376.31C129.163 376.307 129.165 376.304 129.165 376.302L129.164 376.302C129.154 376.345 129.144 376.388 129.134 376.431Z" stroke="white" stroke-width="30" stroke-linecap="round"/>
<path d="M151.429 403.459C151.428 403.461 151.427 403.463 151.427 403.463C150.36 405.066 148.197 405.507 146.588 404.446C144.974 403.382 144.528 401.211 145.592 399.597L148.303 401.385C145.592 399.597 145.593 399.596 145.593 399.595L145.603 399.581C145.607 399.574 145.613 399.566 145.618 399.558C145.63 399.54 145.645 399.518 145.662 399.492C145.698 399.44 145.747 399.372 145.807 399.289C145.926 399.122 146.093 398.895 146.307 398.623C146.733 398.08 147.351 397.347 148.148 396.545C149.718 394.963 152.104 392.987 155.2 391.75C158.158 390.568 160.73 390.25 162.624 390.25C163.569 390.25 164.341 390.329 164.907 390.416C165.19 390.459 165.421 390.505 165.598 390.545C165.686 390.564 165.761 390.582 165.822 390.597C165.852 390.605 165.879 390.612 165.902 390.618C165.913 390.621 165.924 390.624 165.934 390.626C165.939 390.628 165.944 390.629 165.948 390.631L165.957 390.633C165.959 390.633 165.96 390.634 165.047 393.836L165.961 390.634C167.819 391.165 168.896 393.101 168.366 394.959C167.853 396.76 166.019 397.828 164.215 397.411L164.046 397.367C164.048 397.367 164.05 397.369 164.052 397.369L164.079 397.376C164.088 397.378 164.095 397.381 164.098 397.381C164.105 397.383 164.099 397.382 164.082 397.378C164.048 397.371 163.968 397.353 163.844 397.334C163.597 397.296 163.181 397.25 162.625 397.25C161.519 397.25 159.84 397.434 157.797 398.25C155.894 399.01 154.288 400.296 153.116 401.477C152.541 402.055 152.101 402.579 151.811 402.947C151.667 403.131 151.562 403.274 151.499 403.362C151.468 403.406 151.446 403.436 151.435 403.452C151.435 403.452 151.435 403.452 151.434 403.451C151.432 403.454 151.431 403.457 151.429 403.46L151.429 403.459Z" stroke="white" stroke-width="30" stroke-linecap="round"/>
<path d="M135.51 420.424C117.51 412.924 119.51 415.424 94.0104 424.424C77.5111 422.423 59.5104 437.926 59.0104 458.426C58.5104 478.926 76.0104 497.426 100.01 498.926C124.01 500.426 139.51 488.426 147.01 474.926C154.51 461.426 153.51 427.924 135.51 420.424Z" stroke="white" stroke-width="30"/>
<path d="M99.2446 423.018C99.2446 426.608 96.3341 429.518 92.7443 429.518C89.2668 429.518 86.4268 426.787 86.2527 423.352L86.2447 423.018L86.2449 423.012C86.2449 423.008 86.2446 423.002 86.2446 422.994C86.2446 422.977 86.2451 422.953 86.2451 422.921C86.2451 422.858 86.245 422.763 86.245 422.642C86.245 422.398 86.2447 422.043 86.2447 421.601C86.2447 420.717 86.2443 419.481 86.2443 418.073C86.2443 415.256 86.2443 411.753 86.2443 409.003C86.2443 405.967 86.5147 401.993 86.766 398.918C86.8941 397.351 87.0223 395.962 87.1183 394.964C87.1663 394.465 87.206 394.062 87.2343 393.782C87.2484 393.642 87.2602 393.533 87.268 393.458C87.2718 393.42 87.2747 393.39 87.2768 393.37C87.2779 393.36 87.279 393.352 87.2796 393.347L87.2799 393.338L87.2809 393.337C87.6573 389.767 90.8559 387.178 94.4258 387.554C97.9958 387.931 100.585 391.129 100.208 394.699C100.208 394.7 100.208 394.702 100.208 394.703C100.208 394.707 100.208 394.713 100.207 394.721C100.205 394.737 100.203 394.762 100.199 394.795C100.192 394.861 100.182 394.961 100.169 395.091C100.142 395.351 100.104 395.732 100.059 396.208C99.9672 397.16 99.8454 398.486 99.7235 399.978C99.4748 403.02 99.2442 406.539 99.2442 409.003C99.2442 411.753 99.2451 415.256 99.2451 418.072C99.2451 419.481 99.2446 420.718 99.2446 421.602C99.2446 422.044 99.2449 422.398 99.2449 422.642C99.2449 422.763 99.245 422.857 99.245 422.921C99.245 422.953 99.2445 422.977 99.2445 422.993C99.2445 423.001 99.2448 423.008 99.2448 423.012L99.2446 423.018Z" stroke="white" stroke-width="30" stroke-linecap="round"/>
<path d="M94.5364 423.852C91.1304 424.986 87.4497 423.144 86.3155 419.738C85.1817 416.332 87.0237 412.653 90.4294 411.518L90.4313 411.518C90.432 411.518 90.4327 411.516 90.4339 411.516C90.4371 411.515 90.4425 411.514 90.4489 411.512C90.4618 411.507 90.481 411.501 90.5062 411.492C90.5567 411.475 90.6314 411.45 90.7278 411.418C90.9209 411.354 91.202 411.261 91.5524 411.144C92.2536 410.911 93.2344 410.584 94.351 410.212C96.584 409.469 99.3621 408.544 101.542 407.817C104.048 406.983 107.361 406.174 109.881 405.6C111.176 405.305 112.328 405.058 113.157 404.884C113.572 404.797 113.907 404.729 114.141 404.681C114.258 404.657 114.35 404.639 114.414 404.626C114.446 404.619 114.47 404.614 114.488 404.611C114.496 404.609 114.503 404.608 114.508 404.607C114.51 404.606 114.513 404.605 114.514 404.605L114.517 404.605L114.518 404.605C118.039 403.907 121.459 406.195 122.158 409.716C122.856 413.237 120.568 416.658 117.047 417.356L117.045 417.357C117.042 417.357 117.038 417.358 117.031 417.359C117.019 417.362 116.999 417.366 116.973 417.371C116.92 417.382 116.839 417.398 116.734 417.42C116.523 417.463 116.212 417.526 115.825 417.607C115.05 417.769 113.974 418.001 112.768 418.275C110.285 418.841 107.506 419.534 105.65 420.152C103.469 420.878 100.691 421.803 98.4582 422.547C97.3416 422.918 96.3606 423.244 95.6594 423.478C95.3089 423.595 95.0282 423.688 94.8351 423.753C94.7386 423.785 94.664 423.81 94.6135 423.827C94.5882 423.835 94.5687 423.841 94.5558 423.845C94.5494 423.847 94.5443 423.849 94.5411 423.851L94.5364 423.852Z" stroke="white" stroke-width="30" stroke-linecap="round"/>
<path d="M95.8534 421.35C99.2328 422.561 100.991 426.282 99.7801 429.662C98.5691 433.041 94.8481 434.798 91.4688 433.588L91.467 433.587C91.4663 433.587 91.4651 433.587 91.4639 433.587C91.4607 433.586 91.4557 433.583 91.4494 433.581C91.4366 433.576 91.4172 433.57 91.3922 433.561C91.3421 433.543 91.268 433.517 91.1723 433.482C90.9807 433.414 90.7022 433.313 90.3545 433.189C89.6588 432.939 88.6854 432.591 87.5775 432.194C85.3618 431.4 82.6054 430.412 80.442 429.637C77.9563 428.747 74.8496 427.338 72.5132 426.233C71.3125 425.665 70.2537 425.149 69.4946 424.774C69.1147 424.586 68.8085 424.433 68.5951 424.326C68.4884 424.272 68.4045 424.23 68.3465 424.201C68.3176 424.186 68.2949 424.175 68.2791 424.167C68.2714 424.163 68.2653 424.16 68.2608 424.158C68.2585 424.156 68.2559 424.156 68.2544 424.155L68.253 424.153L68.2521 424.153C65.0511 422.528 63.7733 418.616 65.398 415.415C67.0229 412.214 70.9346 410.936 74.1357 412.561L74.1375 412.562C74.1398 412.563 74.1441 412.565 74.1498 412.568C74.1611 412.574 74.179 412.583 74.2031 412.595C74.2515 412.619 74.325 412.656 74.4211 412.704C74.6136 412.801 74.897 412.943 75.2514 413.118C75.9611 413.469 76.951 413.951 78.0691 414.48C80.3709 415.568 82.9855 416.739 84.8269 417.399C86.9904 418.174 89.7467 419.162 91.9624 419.956C93.0703 420.352 94.0434 420.702 94.7391 420.951C95.0868 421.076 95.3656 421.175 95.5572 421.244C95.653 421.278 95.7271 421.305 95.7772 421.322C95.8022 421.331 95.8212 421.339 95.834 421.343C95.8403 421.346 95.8456 421.347 95.8489 421.348L95.8534 421.35Z" stroke="white" stroke-width="30" stroke-linecap="round"/>
<path d="M85.9277 431.89C81.8501 431.163 79.1333 427.269 79.8597 423.191C80.5636 419.241 84.2408 416.568 88.1772 417.065L88.5593 417.123L88.5605 417.123L88.5795 417.127C88.5929 417.129 88.6131 417.132 88.6393 417.137C88.6917 417.146 88.7692 417.16 88.8693 417.178C89.0697 417.214 89.3609 417.266 89.7246 417.331C90.4521 417.461 91.4701 417.642 92.6287 417.848C94.9458 418.261 97.8284 418.775 100.091 419.178C102.742 419.65 106.081 420.533 108.572 421.233C109.857 421.594 110.993 421.928 111.808 422.172C112.216 422.295 112.546 422.395 112.776 422.465C112.891 422.501 112.981 422.528 113.044 422.548C113.075 422.557 113.099 422.565 113.117 422.571C113.125 422.573 113.132 422.575 113.137 422.576C113.14 422.577 113.142 422.578 113.144 422.579L113.147 422.579C113.147 422.58 113.139 422.605 110.916 429.74L113.148 422.58C117.102 423.812 119.309 428.017 118.077 431.972C116.845 435.926 112.64 438.133 108.685 436.901L108.684 436.901C108.682 436.9 108.678 436.898 108.672 436.896C108.661 436.893 108.642 436.887 108.616 436.879C108.565 436.863 108.487 436.84 108.385 436.809C108.18 436.746 107.88 436.655 107.503 436.542C106.749 436.316 105.698 436.007 104.514 435.674C102.066 434.986 99.3338 434.279 97.4599 433.945C95.1974 433.542 92.3141 433.028 89.9969 432.615C88.8385 432.409 87.8214 432.227 87.0939 432.098C86.7301 432.033 86.4379 431.981 86.2375 431.945C86.1374 431.927 86.0598 431.914 86.0075 431.904C85.9814 431.9 85.9611 431.897 85.9477 431.894L85.9277 431.89Z" stroke="white" stroke-width="30" stroke-linecap="round"/>
<path d="M86.7291 446.983C84.3848 449.701 80.2802 450.005 77.5615 447.661C74.8432 445.317 74.5402 441.213 76.8842 438.494L76.8855 438.492C76.886 438.492 76.886 438.491 76.8868 438.49C76.889 438.487 76.8931 438.483 76.8975 438.478C76.9064 438.468 76.9194 438.452 76.9368 438.432C76.9715 438.392 77.0228 438.332 77.0892 438.255C77.2221 438.101 77.4159 437.877 77.6571 437.598C78.1397 437.038 78.8145 436.255 79.5831 435.363C81.12 433.581 83.0321 431.363 84.5329 429.623C86.2571 427.623 88.6883 425.23 90.5587 423.447C91.5198 422.53 92.3825 421.728 93.0051 421.154C93.3167 420.867 93.5699 420.636 93.7464 420.476C93.8347 420.395 93.9043 420.332 93.9524 420.289C93.9764 420.267 93.9949 420.25 94.0081 420.238C94.0145 420.232 94.0198 420.228 94.0235 420.224C94.0254 420.222 94.027 420.22 94.0282 420.219L94.0303 420.218L94.0309 420.218C96.6974 417.814 100.807 418.027 103.211 420.694C105.614 423.36 105.401 427.47 102.734 429.873L102.733 429.875C102.731 429.876 102.728 429.88 102.723 429.884C102.714 429.893 102.699 429.906 102.679 429.924C102.639 429.961 102.578 430.016 102.498 430.088C102.339 430.233 102.105 430.447 101.814 430.714C101.232 431.251 100.426 432.001 99.5305 432.855C97.6879 434.612 95.6558 436.631 94.3785 438.112C92.8778 439.853 90.9657 442.07 89.4287 443.853C88.6602 444.744 87.9846 445.527 87.502 446.086C87.2608 446.366 87.0677 446.59 86.9348 446.745C86.8684 446.822 86.8171 446.881 86.7824 446.922C86.765 446.942 86.7513 446.957 86.7424 446.967C86.738 446.972 86.7347 446.977 86.7324 446.979L86.7291 446.983Z" stroke="white" stroke-width="30" stroke-linecap="round"/>
<path d="M474.278 403.128C478.778 378.628 478.278 363.128 451.278 351.128C447.111 349.462 437.177 346.328 430.777 347.128C422.777 348.128 416.777 356.128 410.777 370.128C404.777 384.128 393.778 397.628 381.778 408.128C369.778 418.628 349.278 453.128 372.778 472.128C396.278 491.128 416.278 488.128 435.778 475.628C455.278 463.128 469.778 427.628 474.278 403.128Z" stroke="white" stroke-width="30"/>
<path d="M414.101 404.198C411.647 407.469 408.179 411.11 405.435 413.842C404.041 415.23 402.793 416.423 401.892 417.271C401.442 417.695 401.077 418.034 400.823 418.269C400.696 418.386 400.596 418.477 400.527 418.539C400.493 418.571 400.465 418.596 400.447 418.613C400.438 418.621 400.431 418.628 400.426 418.632C400.423 418.635 400.421 418.637 400.419 418.639C400.419 418.639 400.417 418.64 400.417 418.64L400.24 418.792C398.398 420.301 395.677 420.115 394.059 418.332C392.389 416.492 392.528 413.646 394.369 411.976C394.369 411.975 394.371 411.975 394.372 411.973C394.375 411.971 394.38 411.965 394.387 411.959C394.401 411.946 394.424 411.925 394.453 411.898C394.513 411.844 394.603 411.762 394.72 411.654C394.954 411.438 395.297 411.12 395.724 410.718C396.578 409.914 397.764 408.78 399.085 407.464C401.77 404.791 404.854 401.526 406.9 398.798C409.007 395.988 411.136 392.6 412.764 389.857C413.571 388.497 414.242 387.319 414.709 386.484C414.942 386.067 415.125 385.736 415.247 385.512C415.309 385.4 415.355 385.315 415.385 385.259C415.4 385.231 415.411 385.21 415.418 385.197C415.422 385.19 415.425 385.186 415.426 385.183C415.427 385.182 415.428 385.181 415.428 385.181C416.603 382.992 419.33 382.168 421.52 383.343C423.71 384.518 424.533 387.246 423.358 389.436L423.356 389.439C423.355 389.441 423.354 389.443 423.353 389.446C423.35 389.451 423.346 389.458 423.341 389.467C423.331 389.485 423.317 389.511 423.299 389.545C423.263 389.611 423.21 389.708 423.143 389.832C423.007 390.079 422.811 390.435 422.563 390.88C422.066 391.768 421.357 393.013 420.503 394.451C418.811 397.302 416.492 401.009 414.101 404.198Z" stroke="white" stroke-width="30" stroke-linecap="round"/>
<path d="M470.019 322.079C464.019 321.279 457.186 326.746 454.519 329.579C449.519 327.08 442.019 325.078 438.519 328.578C435.019 332.078 434.019 344.578 436.019 350.578C438.019 356.578 446.829 360.654 452.019 358.578C454.52 357.578 461.02 357.023 463.019 358.578C468.165 362.581 475.019 365.078 478.519 357.578C481.319 351.578 476.019 345.411 473.019 343.078C474.019 341.578 476.519 337.778 478.519 334.578C481.019 330.578 477.519 323.079 470.019 322.079Z" stroke="white" stroke-width="30"/>
<rect x="225" y="451" width="51" height="57" fill="#FFCC76"/>
<rect x="325" y="451" width="51" height="57" fill="#FFCC76"/>
<rect x="209" y="492" width="72" height="34" rx="17" fill="#F95733"/>
<rect x="315" y="492" width="69" height="34" rx="17" fill="#F95733"/>
<path d="M382 405.5L211.5 401.5C209.9 418.7 214.5 447 217 459H282.5L291 439.75H308L315 459H379L382 405.5Z" fill="#FFA300"/>
<path d="M427.493 192.02C431.356 192.161 434.374 195.407 434.233 199.27C434.129 202.128 433.29 209.8 430.092 217.22C427.967 222.152 423.949 228.905 420.71 234.151C417.288 239.691 414.244 243.86 412.407 246.259C410.611 248.604 409.761 249.535 408.749 250.378C408.172 250.858 407.405 251.449 406.361 251.973C402.905 253.705 398.699 252.308 396.966 248.852C395.285 245.498 396.551 241.437 399.787 239.617C399.799 239.603 399.815 239.586 399.833 239.566C400.042 239.332 400.466 238.823 401.292 237.745C402.909 235.633 405.674 231.854 408.798 226.795C412.105 221.441 415.577 215.526 417.235 211.679C419.541 206.328 420.179 200.495 420.242 198.761C420.383 194.897 423.629 191.879 427.493 192.02Z" fill="#FFAF32"/>
<path d="M97.4996 247.999L164.5 307.499L209 273.5C192.167 257.167 157.5 223.7 153.5 220.5C148.5 216.5 139.5 210 139.5 207.5V200.5C139.5 196.5 140 181.5 138.5 175C137 168.5 131.5 165 125 167.5C119.8 169.5 117.167 181 116.5 186.5L108 178C104.5 174.5 94 165 88.4996 165C82.9991 165 78.5 168.5 78.5 175.5C78.5 181.1 84.1667 187.166 87 189.499C83.5 188.499 75.2 186.799 70 187.999C63.5 189.499 58 192.499 60.5 201.999C62.5 209.599 75.6667 214.832 82 216.499C77.8332 217.499 68.9996 219.599 66.9996 219.999C64.4996 220.499 54.9996 223.499 58.9996 232.499C62.9996 241.499 81.9996 239.499 88.4996 242.499C93.6996 244.899 96.6662 247.165 97.4996 247.999Z" fill="#FFCC77"/>
<path d="M107.105 224.173C106.659 221.764 106.206 218.513 106.352 215.613C106.493 212.818 107.11 209.449 107.658 206.879C107.937 205.572 108.207 204.43 108.407 203.614C108.508 203.206 108.591 202.877 108.65 202.649C108.679 202.535 108.702 202.446 108.718 202.384C108.726 202.354 108.733 202.33 108.738 202.313C108.74 202.305 108.742 202.299 108.743 202.294C108.744 202.292 108.744 202.289 108.744 202.288L108.745 202.286L108.745 202.285L108.789 202.137C109.276 200.627 110.868 199.748 112.419 200.163C114.019 200.591 114.969 202.236 114.541 203.837L114.54 203.837L114.54 203.839C114.539 203.841 114.538 203.846 114.537 203.852C114.533 203.865 114.528 203.885 114.521 203.911C114.508 203.963 114.487 204.043 114.46 204.146C114.406 204.355 114.329 204.661 114.234 205.046C114.045 205.816 113.789 206.896 113.526 208.129C112.991 210.638 112.461 213.621 112.345 215.916C112.234 218.107 112.584 220.809 113.004 223.081C113.21 224.192 113.423 225.153 113.585 225.834C113.665 226.174 113.733 226.443 113.779 226.623C113.802 226.713 113.82 226.781 113.831 226.825C113.837 226.847 113.842 226.862 113.844 226.872C113.846 226.877 113.846 226.88 113.846 226.882L113.847 226.883L113.846 226.883C114.282 228.481 113.34 230.129 111.742 230.565C110.144 231.002 108.494 230.06 108.058 228.461L108.058 228.46L108.055 228.451C108.054 228.447 108.053 228.44 108.05 228.432C108.046 228.415 108.04 228.392 108.032 228.362C108.016 228.304 107.995 228.22 107.967 228.114C107.913 227.902 107.837 227.598 107.747 227.219C107.568 226.463 107.332 225.402 107.105 224.173Z" fill="#FEAE31"/>
<path d="M300.5 404.5H212.5L221 310.999C219.5 310.166 220 309.699 234 314.499C248 319.299 333.167 319.5 374 319C375.5 318.666 379.1 319.8 381.5 327C383.9 334.2 384.833 383.666 385 407.5C363 406.5 315.3 404.5 300.5 404.5Z" fill="#36C670"/>
<path d="M223.5 364L155.5 299L197.5 264L260 314.5L223.5 364Z" fill="#36C670"/>
<path d="M214.499 402.042C214.498 403.699 213.156 405.041 211.499 405.041C209.842 405.041 208.499 403.698 208.499 402.042L208.499 402.04L208.499 402.03C208.499 402.023 208.499 402.014 208.499 402.001C208.499 401.977 208.5 401.941 208.5 401.895C208.5 401.802 208.5 401.664 208.502 401.484C208.505 401.124 208.511 400.592 208.523 399.898C208.547 398.508 208.594 396.468 208.689 393.849C208.879 388.612 209.257 381.055 210.011 371.756C210.765 362.45 211.646 354.91 212.339 349.688C212.685 347.078 212.985 345.046 213.199 343.663C213.306 342.971 213.391 342.441 213.45 342.083C213.479 341.903 213.503 341.766 213.518 341.673C213.526 341.626 213.533 341.591 213.537 341.567C213.539 341.555 213.54 341.545 213.541 341.538C213.542 341.535 213.543 341.532 213.543 341.53L213.543 341.527C213.828 339.895 215.383 338.801 217.015 339.086C218.647 339.371 219.739 340.925 219.455 342.558L219.453 342.562C219.453 342.567 219.451 342.574 219.45 342.584C219.446 342.603 219.441 342.635 219.434 342.676C219.42 342.76 219.398 342.888 219.37 343.058C219.314 343.398 219.232 343.908 219.128 344.579C218.921 345.922 218.627 347.911 218.286 350.477C217.605 355.609 216.737 363.048 215.991 372.242C215.245 381.442 214.872 388.907 214.685 394.066C214.592 396.645 214.546 398.647 214.523 400.001C214.511 400.677 214.505 401.192 214.502 401.535C214.5 401.707 214.499 401.836 214.499 401.92C214.499 401.963 214.499 401.994 214.499 402.014C214.499 402.025 214.499 402.032 214.499 402.037L214.499 402.042Z" fill="#249159"/>
<path d="M174.925 228.775C178.79 228.846 181.866 232.038 181.794 235.904C181.784 236.452 181.709 236.984 181.687 237.149C181.648 237.435 181.598 237.756 181.546 238.077C181.441 238.725 181.301 239.53 181.152 240.368C180.857 242.037 180.526 243.874 180.278 245.356C180.275 245.404 180.27 245.487 180.266 245.611C180.254 245.94 180.248 246.426 180.255 247.086C180.268 248.402 180.331 250.269 180.472 252.705C180.671 256.15 182.118 259.624 184.556 264.035C187.926 269.337 190.161 272.435 190.805 273.176C191.01 273.393 191.044 273.413 191.482 273.832C194.279 276.501 194.383 280.932 191.715 283.729C189.046 286.526 184.615 286.63 181.818 283.961C181.65 283.8 181.147 283.347 180.53 282.69L180.479 282.636L180.431 282.581C178.924 280.905 176.02 276.715 172.623 271.362L172.513 271.189L172.414 271.01C169.731 266.179 166.89 260.329 166.495 253.514C166.345 250.923 166.272 248.825 166.256 247.229C166.242 245.855 166.257 244.324 166.44 243.218L166.895 240.58C167.058 239.663 167.223 238.743 167.366 237.931C167.514 237.095 167.638 236.378 167.726 235.839C167.768 235.58 167.796 235.396 167.812 235.28C168.071 231.587 171.182 228.705 174.925 228.775ZM167.808 235.383C167.803 235.457 167.798 235.545 167.796 235.644C167.798 235.556 167.803 235.47 167.808 235.383Z" fill="#FFAF32"/>
<path d="M198.5 304.5C164 271 167.5 252.5 172.5 119L395.5 107.5C400 135.5 408.6 198 407 224C405 256.5 392 295.5 359.5 314.5C327 333.5 233 338 198.5 304.5Z" fill="#FFCC77"/>
<path d="M256 211.5C256 232 247 243 227.5 243C208 243 199 230 199 211.5C199 193 207.5 180 227.5 180C247.5 180 256 191 256 211.5Z" fill="white"/>
<path d="M347 212.5C347 233 337.684 244 317.5 244C297.316 244 288 231 288 212.5C288 194 296.798 181 317.5 181C338.202 181 347 192 347 212.5Z" fill="white"/>
<path d="M325 212C325 223.063 321.053 229 312.5 229C303.947 229 300 221.984 300 212C300 202.016 303.728 195 312.5 195C321.272 195 325 200.937 325 212Z" fill="#434142"/>
<path d="M245 212.004C245 223.067 241.053 229.004 232.5 229.004C223.947 229.004 220 221.988 220 212.004C220 202.02 223.728 195.004 232.5 195.004C241.272 195.004 245 200.94 245 212.004Z" fill="#434142"/>
<path d="M215.323 167.201C219.231 165.806 223.166 165.275 226.067 165.08C227.53 164.982 228.761 164.968 229.637 164.979C230.076 164.984 230.427 164.996 230.676 165.007C230.8 165.012 230.899 165.017 230.97 165.021C231.006 165.023 231.035 165.025 231.057 165.026C231.067 165.027 231.077 165.028 231.084 165.028C231.087 165.029 231.091 165.029 231.093 165.029C231.095 165.03 231.096 165.029 231.097 165.029L231.099 165.03C231.099 165.036 231.09 165.181 230.861 168.407L231.101 165.029C233.028 165.166 234.48 166.84 234.344 168.768C234.207 170.696 232.534 172.148 230.606 172.012L230.605 172.012L230.605 172.011C230.598 172.011 230.585 172.011 230.566 172.01C230.527 172.007 230.46 172.004 230.37 172C230.189 171.992 229.911 171.982 229.551 171.978C228.829 171.969 227.785 171.981 226.535 172.065C224.009 172.234 220.767 172.69 217.676 173.794C214.429 174.953 211.717 176.355 209.821 177.466C208.876 178.02 208.141 178.497 207.652 178.828C207.408 178.994 207.226 179.122 207.11 179.206C207.052 179.247 207.011 179.278 206.988 179.295C206.978 179.302 206.97 179.306 206.966 179.309L206.967 179.31L206.966 179.31C206.965 179.311 206.965 179.311 206.964 179.312L206.965 179.312C205.425 180.477 203.232 180.175 202.064 178.636C200.896 177.096 201.198 174.9 202.738 173.732L204.632 176.23C202.797 173.81 202.74 173.734 202.739 173.732L202.74 173.73C202.741 173.73 202.742 173.729 202.743 173.728C202.745 173.727 202.747 173.725 202.749 173.723C202.754 173.719 202.761 173.715 202.768 173.709C202.783 173.698 202.802 173.683 202.826 173.666C202.873 173.631 202.939 173.583 203.022 173.524C203.188 173.404 203.424 173.238 203.724 173.034C204.326 172.626 205.19 172.066 206.282 171.426C208.459 170.151 211.571 168.54 215.323 167.201ZM230.611 172.012L230.609 172.013L230.607 172.013L230.606 172.012C230.608 172.012 230.609 172.012 230.611 172.012Z" fill="#43413F"/>
<path d="M331.624 167.433C327.746 166.023 323.852 165.415 320.984 165.15C319.537 165.017 318.32 164.968 317.455 164.952C317.022 164.944 316.675 164.945 316.429 164.948C316.307 164.949 316.209 164.951 316.138 164.953C316.103 164.954 316.074 164.954 316.053 164.955C316.042 164.955 316.033 164.956 316.026 164.956C316.023 164.956 316.02 164.957 316.017 164.957C316.016 164.957 316.014 164.956 316.013 164.956L316.012 164.957C316.012 164.963 316.023 165.098 316.287 168.102L316.01 164.956C314.107 165.028 312.692 166.541 312.85 168.336C313.008 170.131 314.678 171.528 316.581 171.458L316.582 171.458L316.582 171.457C316.589 171.457 316.602 171.458 316.62 171.457C316.659 171.456 316.724 171.454 316.814 171.453C316.992 171.451 317.267 171.451 317.623 171.457C318.335 171.47 319.367 171.511 320.603 171.626C323.101 171.856 326.31 172.375 329.376 173.489C332.599 174.661 335.294 176.043 337.181 177.13C338.121 177.672 338.853 178.137 339.34 178.459C339.583 178.62 339.764 178.744 339.88 178.825C339.937 178.865 339.978 178.895 340.002 178.912C340.011 178.919 340.019 178.922 340.023 178.925L340.022 178.926L340.023 178.926C340.024 178.927 340.024 178.928 340.025 178.928L340.024 178.928C341.559 180.055 343.723 179.839 344.858 178.443C345.994 177.046 345.671 174.997 344.135 173.867L342.293 176.133C344.077 173.938 344.133 173.869 344.134 173.867L344.133 173.865C344.132 173.865 344.131 173.864 344.13 173.864C344.128 173.862 344.126 173.86 344.124 173.859C344.118 173.855 344.112 173.85 344.104 173.845C344.09 173.834 344.071 173.82 344.047 173.803C344 173.769 343.934 173.723 343.852 173.665C343.686 173.55 343.452 173.388 343.152 173.19C342.553 172.794 341.692 172.248 340.606 171.622C338.44 170.373 335.347 168.787 331.624 167.433ZM316.576 171.458L316.578 171.459L316.58 171.458L316.581 171.458C316.579 171.458 316.577 171.458 316.576 171.458Z" fill="#43413F"/>
<path d="M371.937 257.261C370.013 267.857 361.238 274.677 352 273C342.762 271.323 336.56 261.783 338.484 251.187C340.408 240.59 350.264 234.321 359.501 235.999C368.739 237.676 373.709 247.5 371.937 257.261Z" fill="#FFAF32"/>
<path d="M209.107 244.207C214.135 253.137 211.811 263.485 203.975 267.898C196.139 272.31 185.758 269.116 180.73 260.187C175.702 251.258 179.159 240.652 186.995 236.24C194.831 231.827 204.475 235.982 209.107 244.207Z" fill="#FFAF32"/>
<path d="M265.499 225C269.614 225 272.565 227.078 274.306 228.818C275.188 229.701 275.84 230.571 276.275 231.223C276.494 231.552 276.666 231.837 276.789 232.053C276.851 232.161 276.902 232.253 276.941 232.326C276.96 232.363 276.976 232.395 276.99 232.422C276.997 232.435 277.004 232.447 277.01 232.458C277.013 232.463 277.015 232.469 277.018 232.474C277.019 232.476 277.02 232.479 277.021 232.481C277.021 232.483 277.022 232.484 277.023 232.484C277.023 232.486 276.98 232.509 273.228 234.386L277.025 232.487C278.136 234.71 277.235 237.414 275.012 238.525C272.796 239.633 270.104 238.741 268.986 236.534L268.993 236.55C268.989 236.542 268.983 236.532 268.975 236.518C268.942 236.46 268.879 236.354 268.786 236.215C268.596 235.929 268.31 235.549 267.943 235.182C267.183 234.422 266.385 234 265.499 234C264.778 234 264.019 234.381 263.204 235.277C262.822 235.698 262.521 236.136 262.317 236.473C262.217 236.636 262.148 236.764 262.11 236.838C262.091 236.874 262.08 236.896 262.077 236.901C262.078 236.9 262.079 236.898 262.08 236.896C262.082 236.892 262.084 236.888 262.086 236.883C262.087 236.88 262.089 236.876 262.091 236.873C262.092 236.872 262.092 236.87 262.093 236.868C262.093 236.867 262.095 236.866 262.095 236.865L262.094 236.864C261.065 239.125 258.399 240.125 256.137 239.097C253.874 238.068 252.874 235.4 253.903 233.138L257.922 234.965C253.941 233.155 253.903 233.136 253.903 233.135C253.904 233.134 253.905 233.133 253.905 233.132C253.906 233.13 253.907 233.127 253.908 233.125C253.911 233.12 253.913 233.115 253.915 233.109C253.92 233.099 253.926 233.086 253.933 233.072C253.946 233.045 253.961 233.012 253.98 232.975C254.016 232.899 254.064 232.803 254.123 232.689C254.241 232.462 254.406 232.16 254.619 231.809C255.04 231.114 255.677 230.177 256.544 229.223C258.229 227.369 261.221 225 265.499 225Z" fill="#FFAF32"/>
<path d="M324.999 264.001C324.499 280.501 311.999 311.001 275.499 312.001C231.999 313.502 221.499 276 221.999 266C222.499 256 226.499 254.001 235.499 252.001C244.499 250.001 302.499 249.501 312.499 251.001C322.499 252.501 324.999 257.501 324.999 264.001Z" fill="#912C28"/>
<mask id="mask1_1303_2005" style="mask-type:alpha" maskUnits="userSpaceOnUse" x="221" y="250" width="104" height="63">
<path d="M324.999 264.001C324.499 280.501 311.999 311.001 275.499 312.001C231.999 313.502 221.499 276 221.999 266C222.499 256 226.499 254.001 235.499 252.001C244.499 250.001 302.499 249.501 312.499 251.001C322.499 252.501 324.999 257.501 324.999 264.001Z" fill="#D9D9D9"/>
</mask>
<g mask="url(#mask1_1303_2005)">
<path d="M328.403 317.435C325.684 331.535 305.016 339.404 282.24 335.012C259.463 330.62 241.176 316 245.922 301.53C252 282.999 268.415 278.355 292.501 282.999C315.277 287.392 331.122 303.336 328.403 317.435Z" fill="#F85636"/>
<path d="M305.526 246.455C302.807 260.554 283.819 268.748 263.115 264.755C242.411 260.763 225.975 246.5 230.55 231.997C236.408 213.424 251.461 208.517 273.356 212.739C294.06 216.731 308.245 232.355 305.526 246.455Z" fill="#FDFFFF"/>
</g>
<path d="M153 95C153 62.75 187 31.5 213.5 31.5C240 31.5 365.5 31.5 365.5 31.5C399.466 31.5 427 58.9226 427 92.75C427 126.577 399.466 154 365.5 154H213.5C179.534 154 153 127.25 153 95Z" fill="#CB6A14"/>
<rect x="395.219" y="47.3789" width="48" height="29" rx="14.5" transform="rotate(-3.24196 395.219 47.3789)" fill="#CB6A14"/>
<rect x="414.992" y="21" width="48" height="29" rx="14.5" transform="rotate(88.5961 414.992 21)" fill="#CB6A14"/>
<path d="M402.415 63.7887C415.353 61.3748 427.799 69.9063 430.213 82.8443L451.407 196.442L404.554 205.184L383.36 91.5858C380.946 78.6478 389.477 66.2026 402.415 63.7887V63.7887Z" fill="#CB6A14"/>
<path d="M187.681 65.1331C194.86 56.8493 202.857 53.086 209.13 51.4281C212.249 50.6036 214.93 50.3021 216.864 50.2093C217.833 50.1629 218.62 50.1683 219.186 50.1879C219.47 50.1977 219.699 50.2117 219.869 50.2238C219.954 50.2299 220.025 50.2355 220.08 50.2404C220.108 50.2428 220.131 50.2447 220.151 50.2466C220.161 50.2476 220.17 50.2493 220.178 50.2501C220.182 50.2505 220.186 50.2504 220.19 50.2508C220.191 50.2509 220.194 50.2514 220.195 50.2514C220.196 50.2571 220.183 50.4091 219.731 54.7006L220.199 50.2514C222.67 50.5115 224.463 52.7262 224.203 55.1977C223.943 57.6681 221.731 59.46 219.261 59.2021L219.262 59.2028C219.263 59.2029 219.265 59.2027 219.266 59.2028C219.267 59.203 219.269 59.2041 219.27 59.2042C219.26 59.2034 219.247 59.202 219.229 59.2008C219.164 59.1961 219.044 59.1887 218.874 59.1828C218.535 59.171 217.997 59.1658 217.296 59.1994C215.89 59.2667 213.847 59.4907 211.43 60.1295C206.629 61.3986 200.302 64.3124 194.482 71.0282C188.439 78.0004 185.931 84.0321 184.891 88.1348C184.368 90.1979 184.209 91.8056 184.171 92.8381C184.152 93.3546 184.164 93.7284 184.176 93.9436C184.182 94.0511 184.188 94.1197 184.19 94.1459C184.192 94.1588 184.192 94.1614 184.191 94.1535C184.19 94.1496 184.19 94.1428 184.189 94.1335C184.188 94.1289 184.188 94.1236 184.187 94.1176L184.185 94.1031H184.183C184.528 96.5618 182.817 98.8351 180.358 99.1827C177.897 99.5306 175.621 97.8179 175.273 95.3571L179.7 94.7315C175.305 95.3529 175.272 95.3544 175.271 95.3516L175.269 95.333C175.268 95.3241 175.266 95.3143 175.265 95.304C175.262 95.2833 175.259 95.2593 175.256 95.2328C175.25 95.18 175.242 95.1157 175.235 95.0402C175.22 94.8885 175.203 94.6914 175.19 94.4511C175.163 93.9707 175.147 93.3168 175.177 92.5073C175.236 90.8873 175.477 88.646 176.168 85.9231C177.554 80.4526 180.724 73.1608 187.681 65.1331Z" fill="#AC4C0E"/>
<ellipse cx="397.006" cy="213.195" rx="30" ry="19" transform="rotate(-42.018 397.006 213.195)" fill="#FFCC77"/>
<path d="M472.5 248.002L422.5 312.502C407.333 301.334 377.2 278.5 378 276.5C378.8 274.5 413 232.667 430 212C429.333 203.833 428.6 185.9 431 179.5C434 171.5 438 166.501 445 169C450.6 170.999 453 179.5 453.5 183.5C457.167 178.667 465.6 168.501 470 166.501C475.5 164.001 482 165.001 484 172.001C485.6 177.601 478.667 186.334 475 190C478.5 187.834 486.8 183.7 492 184.5C498.5 185.5 504 189.5 503.5 198C503.1 204.8 491.333 213.835 485.5 217.502C489 217.168 496.8 217.102 500 219.502C504 222.502 505 228.502 502 234.002C499 239.502 481.5 241.502 478 243.002C475.2 244.202 473.167 246.835 472.5 248.002Z" fill="#FFCC77"/>
<path d="M447.256 201.493C445.879 199.425 446.437 196.633 448.505 195.255C450.573 193.877 453.367 194.436 454.745 196.504L451.131 198.913C454.571 196.62 454.737 196.51 454.745 196.505L454.747 196.506L454.753 196.516C454.757 196.522 454.762 196.529 454.767 196.537C454.779 196.554 454.793 196.577 454.812 196.605C454.849 196.662 454.9 196.741 454.964 196.841C455.092 197.04 455.269 197.322 455.483 197.674C455.91 198.374 456.489 199.36 457.103 200.52C458.285 202.754 459.783 205.968 460.413 209.119C461.005 212.077 461.126 215.697 461.126 218.375C461.126 219.756 461.093 220.971 461.06 221.841C461.044 222.277 461.027 222.63 461.014 222.877C461.008 223 461.003 223.097 460.999 223.165C460.997 223.199 460.995 223.227 460.994 223.246C460.993 223.255 460.993 223.263 460.992 223.269C460.992 223.272 460.992 223.275 460.992 223.277L460.992 223.279L460.992 223.28C460.992 223.28 460.992 223.28 456.501 222.999L460.992 223.281C460.837 225.761 458.7 227.646 456.22 227.491C453.816 227.34 451.973 225.33 452.001 222.95L452.01 222.719V222.707C452.01 222.696 452.012 222.677 452.013 222.652C452.016 222.6 452.021 222.521 452.027 222.416C452.037 222.206 452.052 221.893 452.067 221.502C452.096 220.717 452.126 219.619 452.126 218.376C452.126 215.805 451.997 212.926 451.589 210.884C451.219 209.035 450.216 206.749 449.149 204.731C448.637 203.766 448.154 202.939 447.799 202.358C447.623 202.069 447.48 201.843 447.385 201.694C447.337 201.62 447.302 201.565 447.28 201.531C447.269 201.515 447.261 201.503 447.257 201.497C447.256 201.496 447.256 201.494 447.256 201.493Z" fill="#FEAE31"/>
<path d="M336 330.5L388 263.5C385.5 268.333 389.5 282.5 400.5 291.5C414.931 303.307 426.5 303 430.5 302L377.5 368L336 330.5Z" fill="#36C670"/>
<rect x="214.93" y="450" width="46" height="16" rx="8" transform="rotate(38.3634 214.93 450)" fill="#67CB20"/>
<circle cx="201.5" cy="435.5" r="15.5" fill="#2FA04F"/>
<circle cx="189.5" cy="457.5" r="15.5" fill="#2FA04F"/>
<circle cx="204.5" cy="476.5" r="15.5" fill="#2FA04F"/>
<circle cx="208.5" cy="466.5" r="15.5" fill="#2FA04F"/>
<circle cx="220.5" cy="442.5" r="21.5" fill="#2FA04F"/>
<path d="M265.162 403.452C257.495 403.952 244.662 408.252 254.662 421.452C262.661 427.951 263.162 427.453 272.662 430.453C282.162 433.453 274.662 410.953 276.662 405.952C277.862 402.352 269.495 402.785 265.162 403.452Z" fill="#439323"/>
<rect x="270" y="385" width="30" height="47" rx="15" fill="#439323"/>
<ellipse cx="297" cy="453" rx="43" ry="38" fill="#FD7700"/>
<path d="M291.74 438.878C294.907 436.087 298.102 434.205 300.505 433.019C301.71 432.424 302.728 431.998 303.459 431.716C303.825 431.575 304.12 431.47 304.332 431.397C304.438 431.36 304.525 431.332 304.588 431.312C304.62 431.302 304.646 431.294 304.667 431.287C304.677 431.284 304.686 431.28 304.693 431.278C304.697 431.277 304.701 431.276 304.704 431.275C304.705 431.275 304.706 431.274 304.707 431.274L304.709 431.273C304.711 431.274 304.726 431.324 305.466 433.747L304.711 431.273C306.56 430.709 308.516 431.75 309.08 433.599C309.643 435.445 308.606 437.397 306.764 437.965L306.741 437.973C306.715 437.981 306.668 437.996 306.601 438.019C306.468 438.065 306.255 438.14 305.977 438.247C305.419 438.462 304.597 438.805 303.604 439.295C301.609 440.281 298.965 441.841 296.367 444.13C293.698 446.481 292.228 448.352 291.452 449.537C291.063 450.129 290.846 450.555 290.739 450.788C290.685 450.904 290.658 450.974 290.651 450.993C290.652 450.991 290.653 450.988 290.654 450.985C290.656 450.977 290.659 450.966 290.664 450.952C290.666 450.945 290.669 450.937 290.671 450.928L290.677 450.908C290.678 450.906 290.678 450.904 290.678 450.903L290.677 450.903C290.136 452.757 288.198 453.823 286.343 453.284C284.486 452.745 283.419 450.804 283.958 448.948L286.959 449.819C283.982 448.954 283.958 448.945 283.958 448.943C283.958 448.943 283.959 448.941 283.96 448.939C283.961 448.937 283.961 448.934 283.962 448.931C283.964 448.926 283.966 448.92 283.968 448.914C283.971 448.902 283.975 448.889 283.979 448.875C283.987 448.848 283.998 448.818 284.009 448.784C284.031 448.717 284.059 448.638 284.093 448.547C284.161 448.363 284.255 448.132 284.382 447.857C284.637 447.305 285.022 446.577 285.597 445.7C286.747 443.945 288.644 441.606 291.74 438.878Z" fill="#F45D02"/>
<path d="M110.743 306.387C120.762 324.437 125.927 334.509 134.068 352.024C136.396 357.033 134.223 362.98 129.215 365.308C124.207 367.635 118.259 365.462 115.931 360.454C108.011 343.414 103.068 333.769 93.2563 316.092C90.5762 311.263 92.3182 305.176 97.1471 302.496C101.976 299.816 108.063 301.558 110.743 306.387Z" fill="#439323"/>
<path d="M97.7576 329.749C111.106 335.496 118.336 339.022 130.245 345.672C134.826 348.23 136.466 354.017 133.909 358.598C131.351 363.179 125.563 364.819 120.982 362.261C109.697 355.959 103.056 352.717 90.2436 347.201C85.4247 345.126 83.2003 339.538 85.2751 334.719C87.3499 329.9 92.9386 327.675 97.7576 329.749Z" fill="#439323"/>
<path d="M137.442 317.79C137.765 332.319 137.565 340.361 136.468 353.956C136.047 359.186 131.466 363.084 126.236 362.662C121.006 362.241 117.108 357.659 117.53 352.429C118.569 339.546 118.757 332.158 118.447 318.212C118.33 312.967 122.488 308.62 127.733 308.503C132.978 308.387 137.326 312.544 137.442 317.79Z" fill="#439323"/>
<path d="M158 359.002C155 351.002 141 332.002 120 342.502C117 344.001 106.6 349.1 107 363.5C107.5 381.5 120 396 137 414.5C154 433 168.5 440.5 173 437.5C177.5 434.5 177 425 175.5 414.5C174 404 161 367.002 158 359.002Z" fill="#FD7700"/>
<path d="M134.131 363.039C139.172 359.855 143.207 358.337 146.107 357.632C147.554 357.28 148.71 357.133 149.555 357.08C149.977 357.054 150.32 357.051 150.582 357.057C150.713 357.061 150.825 357.066 150.915 357.072C150.959 357.075 150.999 357.077 151.033 357.08C151.051 357.082 151.067 357.085 151.081 357.086C151.088 357.087 151.096 357.086 151.102 357.087C151.106 357.087 151.109 357.089 151.112 357.089C151.114 357.089 151.115 357.089 151.116 357.089C151.118 357.089 151.12 357.09 150.784 360.183L151.121 357.09C153.043 357.299 154.431 359.027 154.222 360.948C154.019 362.81 152.392 364.17 150.543 364.063L150.381 364.05C150.386 364.051 150.391 364.052 150.396 364.052C150.405 364.053 150.414 364.054 150.421 364.054C150.435 364.056 150.444 364.056 150.448 364.056C150.443 364.056 150.432 364.055 150.414 364.055C150.353 364.054 150.212 364.053 149.994 364.067C149.56 364.094 148.81 364.179 147.76 364.435C145.663 364.945 142.327 366.142 137.869 368.957C133.336 371.82 131.076 373.988 129.991 375.282C129.453 375.924 129.212 376.341 129.125 376.512C129.112 376.538 129.101 376.558 129.094 376.573C128.578 378.302 126.813 379.374 125.017 378.993C123.126 378.592 121.918 376.734 122.319 374.843L125.441 375.505C122.391 374.858 122.321 374.84 122.32 374.836L122.326 374.813C122.328 374.803 122.329 374.793 122.332 374.782C122.337 374.761 122.342 374.738 122.348 374.716C122.359 374.67 122.373 374.621 122.387 374.569C122.417 374.465 122.453 374.349 122.499 374.222C122.591 373.966 122.718 373.665 122.894 373.322C123.245 372.636 123.788 371.785 124.626 370.785C126.295 368.794 129.164 366.176 134.131 363.039ZM129.134 376.431C129.136 376.421 129.139 376.412 129.142 376.402C129.146 376.386 129.149 376.369 129.153 376.351C129.156 376.343 129.158 376.333 129.16 376.324C129.161 376.319 129.161 376.314 129.163 376.31C129.163 376.307 129.165 376.304 129.165 376.302L129.164 376.302C129.154 376.345 129.144 376.388 129.134 376.431Z" fill="#F45D02"/>
<path d="M151.429 403.459C151.428 403.461 151.427 403.463 151.427 403.463C150.36 405.066 148.197 405.507 146.588 404.446C144.974 403.382 144.528 401.211 145.592 399.597L148.303 401.385C145.592 399.597 145.593 399.596 145.593 399.595L145.603 399.581C145.607 399.574 145.613 399.566 145.618 399.558C145.63 399.54 145.645 399.518 145.662 399.492C145.698 399.44 145.747 399.372 145.807 399.289C145.926 399.122 146.093 398.895 146.307 398.623C146.733 398.08 147.351 397.347 148.148 396.545C149.718 394.963 152.104 392.987 155.2 391.75C158.158 390.568 160.73 390.25 162.624 390.25C163.569 390.25 164.341 390.329 164.907 390.416C165.19 390.459 165.421 390.505 165.598 390.545C165.686 390.564 165.761 390.582 165.822 390.597C165.852 390.605 165.879 390.612 165.902 390.618C165.913 390.621 165.924 390.624 165.934 390.626C165.939 390.628 165.944 390.629 165.948 390.631L165.957 390.633C165.959 390.633 165.96 390.634 165.047 393.836L165.961 390.634C167.819 391.165 168.896 393.101 168.366 394.959C167.853 396.76 166.019 397.828 164.215 397.411L164.046 397.367C164.048 397.367 164.05 397.369 164.052 397.369L164.079 397.376C164.088 397.378 164.095 397.381 164.098 397.381C164.105 397.383 164.099 397.382 164.082 397.378C164.048 397.371 163.968 397.353 163.844 397.334C163.597 397.296 163.181 397.25 162.625 397.25C161.519 397.25 159.84 397.434 157.797 398.25C155.894 399.01 154.288 400.296 153.116 401.477C152.541 402.055 152.101 402.579 151.811 402.947C151.667 403.131 151.562 403.274 151.499 403.362C151.468 403.406 151.446 403.436 151.435 403.452C151.435 403.452 151.435 403.452 151.434 403.451C151.432 403.454 151.431 403.457 151.429 403.46L151.429 403.459Z" fill="#F45D02"/>
<path d="M135.51 420.424C117.51 412.924 119.51 415.424 94.0104 424.424C77.5111 422.423 59.5104 437.926 59.0104 458.426C58.5104 478.926 76.0104 497.426 100.01 498.926C124.01 500.426 139.51 488.426 147.01 474.926C154.51 461.426 153.51 427.924 135.51 420.424Z" fill="#F1431A"/>
<path d="M99.2446 423.022C99.2446 426.612 96.3341 429.522 92.7443 429.522C89.2668 429.522 86.4268 426.791 86.2527 423.356L86.2447 423.022L86.2449 423.016C86.2449 423.012 86.2446 423.006 86.2446 422.998C86.2446 422.981 86.2451 422.957 86.2451 422.925C86.2451 422.862 86.245 422.767 86.245 422.646C86.245 422.402 86.2447 422.047 86.2447 421.605C86.2447 420.721 86.2443 419.485 86.2443 418.077C86.2443 415.26 86.2443 411.757 86.2443 409.007C86.2443 405.971 86.5147 401.997 86.766 398.922C86.8941 397.355 87.0223 395.966 87.1183 394.968C87.1663 394.469 87.206 394.066 87.2343 393.786C87.2484 393.646 87.2602 393.537 87.268 393.462C87.2718 393.424 87.2747 393.394 87.2768 393.374C87.2779 393.364 87.279 393.356 87.2796 393.351L87.2799 393.342L87.2809 393.341C87.6573 389.771 90.8559 387.182 94.4258 387.558C97.9958 387.935 100.585 391.133 100.208 394.703C100.208 394.704 100.208 394.705 100.208 394.707C100.208 394.711 100.208 394.717 100.207 394.725C100.205 394.741 100.203 394.765 100.199 394.799C100.192 394.865 100.182 394.965 100.169 395.095C100.142 395.355 100.104 395.736 100.059 396.212C99.9672 397.164 99.8454 398.49 99.7235 399.982C99.4748 403.024 99.2442 406.543 99.2442 409.007C99.2442 411.756 99.2451 415.26 99.2451 418.076C99.2451 419.485 99.2446 420.722 99.2446 421.606C99.2446 422.048 99.2449 422.402 99.2449 422.646C99.2449 422.767 99.245 422.861 99.245 422.925C99.245 422.957 99.2445 422.981 99.2445 422.997C99.2445 423.005 99.2448 423.012 99.2448 423.016L99.2446 423.022Z" fill="#36A035"/>
<path d="M94.5364 423.852C91.1304 424.986 87.4497 423.144 86.3155 419.738C85.1817 416.332 87.0237 412.653 90.4294 411.518L90.4313 411.518C90.432 411.518 90.4327 411.516 90.4339 411.516C90.4371 411.515 90.4425 411.514 90.4489 411.512C90.4618 411.507 90.481 411.501 90.5062 411.492C90.5567 411.475 90.6314 411.45 90.7278 411.418C90.9209 411.354 91.202 411.261 91.5524 411.144C92.2536 410.911 93.2344 410.584 94.351 410.212C96.584 409.469 99.3621 408.544 101.542 407.817C104.048 406.983 107.361 406.174 109.881 405.6C111.176 405.305 112.328 405.058 113.157 404.884C113.572 404.797 113.907 404.729 114.141 404.681C114.258 404.657 114.35 404.639 114.414 404.626C114.446 404.619 114.47 404.614 114.488 404.611C114.496 404.609 114.503 404.608 114.508 404.607C114.51 404.606 114.513 404.605 114.514 404.605L114.517 404.605L114.518 404.605C118.039 403.907 121.459 406.195 122.158 409.716C122.856 413.237 120.568 416.658 117.047 417.356L117.045 417.357C117.042 417.357 117.038 417.358 117.031 417.359C117.019 417.362 116.999 417.366 116.973 417.371C116.92 417.382 116.839 417.398 116.734 417.42C116.523 417.463 116.212 417.526 115.825 417.607C115.05 417.769 113.974 418.001 112.768 418.275C110.285 418.841 107.506 419.534 105.65 420.152C103.469 420.878 100.691 421.803 98.4582 422.547C97.3416 422.918 96.3606 423.244 95.6594 423.478C95.3089 423.595 95.0282 423.688 94.8351 423.753C94.7386 423.785 94.664 423.81 94.6135 423.827C94.5882 423.835 94.5687 423.841 94.5558 423.845C94.5494 423.847 94.5443 423.849 94.5411 423.851L94.5364 423.852Z" fill="#36A035"/>
<path d="M95.8534 421.354C99.2328 422.565 100.991 426.286 99.7801 429.666C98.5691 433.045 94.8481 434.802 91.4688 433.592L91.467 433.591C91.4663 433.591 91.4651 433.591 91.4639 433.591C91.4607 433.59 91.4557 433.587 91.4494 433.585C91.4366 433.58 91.4172 433.574 91.3922 433.565C91.3421 433.547 91.268 433.52 91.1723 433.486C90.9807 433.418 90.7022 433.317 90.3545 433.192C89.6588 432.943 88.6854 432.595 87.5775 432.198C85.3618 431.404 82.6054 430.416 80.442 429.641C77.9563 428.751 74.8496 427.342 72.5132 426.237C71.3125 425.669 70.2537 425.153 69.4946 424.778C69.1147 424.59 68.8085 424.437 68.5951 424.33C68.4884 424.276 68.4045 424.234 68.3465 424.205C68.3176 424.19 68.2949 424.179 68.2791 424.171C68.2714 424.167 68.2653 424.164 68.2608 424.161C68.2585 424.16 68.2559 424.16 68.2544 424.159L68.253 424.157L68.2521 424.157C65.0511 422.532 63.7733 418.62 65.398 415.419C67.0229 412.218 70.9346 410.94 74.1357 412.565L74.1375 412.566C74.1398 412.567 74.1441 412.569 74.1498 412.572C74.1611 412.578 74.179 412.587 74.2031 412.599C74.2515 412.623 74.325 412.66 74.4211 412.708C74.6136 412.805 74.897 412.947 75.2514 413.122C75.9611 413.472 76.951 413.955 78.0691 414.484C80.3709 415.572 82.9855 416.743 84.8269 417.403C86.9904 418.178 89.7467 419.166 91.9624 419.959C93.0703 420.356 94.0434 420.706 94.7391 420.955C95.0868 421.079 95.3656 421.179 95.5572 421.248C95.653 421.282 95.7271 421.308 95.7772 421.326C95.8022 421.335 95.8212 421.343 95.834 421.347C95.8403 421.35 95.8456 421.351 95.8489 421.352L95.8534 421.354Z" fill="#36A035"/>
<path d="M85.9277 431.894C81.8501 431.167 79.1333 427.273 79.8597 423.195C80.5636 419.245 84.2408 416.572 88.1772 417.069L88.5593 417.127L88.5605 417.127L88.5795 417.131C88.5929 417.133 88.6131 417.136 88.6393 417.141C88.6917 417.15 88.7692 417.164 88.8693 417.182C89.0697 417.218 89.3609 417.27 89.7246 417.335C90.4521 417.465 91.4701 417.645 92.6287 417.852C94.9458 418.265 97.8284 418.779 100.091 419.182C102.742 419.654 106.081 420.537 108.572 421.237C109.857 421.598 110.993 421.932 111.808 422.176C112.216 422.299 112.546 422.399 112.776 422.469C112.891 422.505 112.981 422.532 113.044 422.552C113.075 422.561 113.099 422.569 113.117 422.575C113.125 422.577 113.132 422.579 113.137 422.58C113.14 422.581 113.142 422.582 113.144 422.583L113.147 422.583C113.147 422.584 113.139 422.609 110.916 429.744L113.148 422.584C117.102 423.816 119.309 428.021 118.077 431.976C116.845 435.93 112.64 438.137 108.685 436.905L108.684 436.905C108.682 436.904 108.678 436.902 108.672 436.9C108.661 436.897 108.642 436.891 108.616 436.883C108.565 436.867 108.487 436.844 108.385 436.813C108.18 436.75 107.88 436.659 107.503 436.546C106.749 436.32 105.698 436.011 104.514 435.678C102.066 434.99 99.3338 434.283 97.4599 433.949C95.1974 433.546 92.3141 433.032 89.9969 432.619C88.8385 432.413 87.8214 432.231 87.0939 432.102C86.7301 432.037 86.4379 431.985 86.2375 431.949C86.1374 431.931 86.0598 431.918 86.0075 431.908C85.9814 431.904 85.9611 431.9 85.9477 431.898L85.9277 431.894Z" fill="#36A035"/>
<path d="M86.7291 446.987C84.3848 449.705 80.2802 450.009 77.5615 447.665C74.8432 445.32 74.5402 441.216 76.8842 438.498L76.8855 438.496C76.886 438.496 76.886 438.495 76.8868 438.494C76.889 438.491 76.8931 438.487 76.8975 438.482C76.9064 438.472 76.9194 438.456 76.9368 438.436C76.9715 438.396 77.0228 438.336 77.0892 438.259C77.2221 438.105 77.4159 437.881 77.6571 437.601C78.1397 437.042 78.8145 436.258 79.5831 435.367C81.12 433.585 83.0321 431.367 84.5329 429.627C86.2571 427.627 88.6883 425.234 90.5587 423.451C91.5198 422.534 92.3825 421.732 93.0051 421.158C93.3167 420.871 93.5699 420.64 93.7464 420.48C93.8347 420.399 93.9043 420.336 93.9524 420.293C93.9764 420.271 93.9949 420.254 94.0081 420.242C94.0145 420.236 94.0198 420.231 94.0235 420.228C94.0254 420.226 94.027 420.224 94.0282 420.223L94.0303 420.222L94.0309 420.222C96.6974 417.818 100.807 418.031 103.211 420.698C105.614 423.364 105.401 427.474 102.734 429.877L102.733 429.879C102.731 429.88 102.728 429.884 102.723 429.888C102.714 429.896 102.699 429.91 102.679 429.928C102.639 429.964 102.578 430.02 102.498 430.092C102.339 430.237 102.105 430.451 101.814 430.718C101.232 431.255 100.426 432.005 99.5305 432.859C97.6879 434.616 95.6558 436.635 94.3785 438.116C92.8778 439.857 90.9657 442.074 89.4287 443.857C88.6602 444.748 87.9846 445.531 87.502 446.09C87.2608 446.37 87.0677 446.594 86.9348 446.749C86.8684 446.826 86.8171 446.885 86.7824 446.926C86.765 446.946 86.7513 446.961 86.7424 446.971C86.738 446.976 86.7347 446.981 86.7324 446.983L86.7291 446.987Z" fill="#36A035"/>
<path d="M474.278 403.128C478.778 378.628 478.278 363.128 451.278 351.128C447.111 349.462 437.177 346.328 430.777 347.128C422.777 348.128 416.777 356.128 410.777 370.128C404.777 384.128 393.778 397.628 381.778 408.128C369.778 418.628 349.278 453.128 372.778 472.128C396.278 491.128 416.278 488.128 435.778 475.628C455.278 463.128 469.778 427.628 474.278 403.128Z" fill="#704AAD"/>
<path d="M414.101 404.198C411.647 407.469 408.179 411.11 405.435 413.842C404.041 415.23 402.793 416.423 401.892 417.271C401.442 417.695 401.077 418.034 400.823 418.269C400.696 418.386 400.596 418.477 400.527 418.539C400.493 418.571 400.465 418.596 400.447 418.613C400.438 418.621 400.431 418.628 400.426 418.632C400.423 418.635 400.421 418.637 400.419 418.639C400.419 418.639 400.417 418.64 400.417 418.64L400.24 418.792C398.398 420.301 395.677 420.115 394.059 418.332C392.389 416.492 392.528 413.646 394.369 411.976C394.369 411.975 394.371 411.975 394.372 411.973C394.375 411.971 394.38 411.965 394.387 411.959C394.401 411.946 394.424 411.925 394.453 411.898C394.513 411.844 394.603 411.762 394.72 411.654C394.954 411.438 395.297 411.12 395.724 410.718C396.578 409.914 397.764 408.78 399.085 407.464C401.77 404.791 404.854 401.526 406.9 398.798C409.007 395.988 411.136 392.6 412.764 389.857C413.571 388.497 414.242 387.319 414.709 386.484C414.942 386.067 415.125 385.736 415.247 385.512C415.309 385.4 415.355 385.315 415.385 385.259C415.4 385.231 415.411 385.21 415.418 385.197C415.422 385.19 415.425 385.186 415.426 385.183C415.427 385.182 415.428 385.181 415.428 385.181C416.603 382.992 419.33 382.168 421.52 383.343C423.71 384.518 424.533 387.246 423.358 389.436L423.356 389.439C423.355 389.441 423.354 389.443 423.353 389.446C423.35 389.451 423.346 389.458 423.341 389.467C423.331 389.485 423.317 389.511 423.299 389.545C423.263 389.611 423.21 389.708 423.143 389.832C423.007 390.079 422.811 390.435 422.563 390.88C422.066 391.768 421.357 393.013 420.503 394.451C418.811 397.302 416.492 401.009 414.101 404.198Z" fill="#965EBD"/>
<path d="M470.019 322.079C464.019 321.279 457.186 326.746 454.519 329.579C449.519 327.08 442.019 325.078 438.519 328.578C435.019 332.078 434.019 344.578 436.019 350.578C438.019 356.578 446.829 360.654 452.019 358.578C454.52 357.578 461.02 357.023 463.019 358.578C468.165 362.581 475.019 365.078 478.519 357.578C481.319 351.578 476.019 345.411 473.019 343.078C474.019 341.578 476.519 337.778 478.519 334.578C481.019 330.578 477.519 323.079 470.019 322.079Z" fill="#429423"/>
</svg>
