<svg width="446" height="505" viewBox="0 0 446 505" fill="none" xmlns="http://www.w3.org/2000/svg">
<rect x="166.971" y="430" width="51" height="57" fill="#FFCC76"/>
<rect x="266.971" y="430" width="51" height="57" fill="#FFCC76"/>
<rect x="150.971" y="471" width="72" height="34" rx="17" fill="#F95733"/>
<rect x="256.971" y="471" width="69" height="34" rx="17" fill="#F95733"/>
<path d="M323.971 384.5L153.471 380.5C151.871 397.7 156.471 426 158.971 438H224.471L232.971 418.75H249.971L256.971 438H320.971L323.971 384.5Z" fill="#FFA300"/>
<path d="M369.464 171.02C373.327 171.161 376.345 174.407 376.204 178.27C376.1 181.128 375.261 188.8 372.063 196.22C369.938 201.152 365.92 207.905 362.68 213.151C359.259 218.691 356.215 222.86 354.378 225.259C352.582 227.604 351.732 228.535 350.719 229.378C350.143 229.858 349.376 230.449 348.332 230.973C344.876 232.705 340.67 231.308 338.937 227.852C337.256 224.498 338.522 220.437 341.757 218.617C341.77 218.603 341.785 218.586 341.803 218.566C342.012 218.332 342.437 217.823 343.262 216.745C344.88 214.633 347.645 210.854 350.769 205.795C354.075 200.441 357.548 194.526 359.206 190.679C361.511 185.328 362.149 179.495 362.213 177.761C362.353 173.897 365.6 170.879 369.464 171.02Z" fill="#FFAF32"/>
<path d="M39.4703 226.999L106.47 286.499L150.971 252.5C134.137 236.167 99.4707 202.7 95.4707 199.5C90.4707 195.5 81.4707 189 81.4707 186.5V179.5C81.4707 175.5 81.9707 160.5 80.4707 154C78.9707 147.5 73.4707 144 66.9707 146.5C61.7707 148.5 59.1374 160 58.4707 165.5L49.9707 157C46.4707 153.5 35.9707 144 30.4703 144C24.9698 144 20.4707 147.5 20.4707 154.5C20.4707 160.1 26.1374 166.166 28.9707 168.499C25.4707 167.499 17.1707 165.799 11.9707 166.999C5.4707 168.499 -0.0292969 171.499 2.4707 180.999C4.4707 188.599 17.6374 193.832 23.9707 195.499C19.8039 196.499 10.9703 198.599 8.97027 198.999C6.47027 199.499 -3.02973 202.499 0.970267 211.499C4.97027 220.499 23.9703 218.499 30.4703 221.499C35.6703 223.899 38.6369 226.165 39.4703 226.999Z" fill="#FFCC77"/>
<path d="M49.0752 203.173C48.6295 200.764 48.1764 197.513 48.3226 194.613C48.4637 191.818 49.081 188.449 49.629 185.879C49.9076 184.572 50.1774 183.43 50.3781 182.614C50.4785 182.206 50.5616 181.877 50.6204 181.649C50.6497 181.535 50.6729 181.446 50.689 181.384C50.6971 181.354 50.7041 181.33 50.7085 181.313C50.7107 181.305 50.7123 181.299 50.7136 181.294C50.7142 181.292 50.7143 181.289 50.7146 181.288L50.7156 181.286L50.7157 181.285L50.7595 181.137C51.2468 179.627 52.8389 178.748 54.3894 179.163C55.9898 179.591 56.9399 181.236 56.5115 182.837L56.5106 182.837L56.5105 182.839C56.5098 182.841 56.5091 182.846 56.5074 182.852C56.5041 182.865 56.4989 182.885 56.4921 182.911C56.4783 182.963 56.4573 183.043 56.4306 183.146C56.3769 183.355 56.2993 183.661 56.2047 184.046C56.0153 184.816 55.7598 185.896 55.4969 187.129C54.962 189.638 54.4313 192.621 54.3155 194.916C54.205 197.107 54.5543 199.809 54.9748 202.081C55.1804 203.192 55.3938 204.153 55.5553 204.834C55.636 205.174 55.7035 205.443 55.7498 205.623C55.7729 205.713 55.7904 205.781 55.802 205.825C55.8078 205.847 55.8126 205.862 55.8151 205.872C55.8164 205.877 55.8165 205.88 55.8169 205.882L55.8179 205.883L55.8169 205.883C56.2525 207.481 55.311 209.129 53.7131 209.565C52.1147 210.002 50.465 209.06 50.0286 207.461L50.0286 207.46L50.0258 207.451C50.0245 207.447 50.0233 207.44 50.0211 207.432C50.0167 207.415 50.0102 207.392 50.0025 207.362C49.987 207.304 49.9653 207.22 49.9381 207.114C49.8836 206.902 49.8075 206.598 49.7176 206.219C49.5383 205.463 49.3027 204.402 49.0752 203.173Z" fill="#FEAE31"/>
<path d="M242.471 383.5H154.471L162.971 289.999C161.471 289.166 161.971 288.699 175.971 293.499C189.971 298.299 275.137 298.5 315.971 298C317.471 297.666 321.071 298.8 323.471 306C325.871 313.2 326.804 362.666 326.971 386.5C304.971 385.5 257.271 383.5 242.471 383.5Z" fill="#36C670"/>
<path d="M165.471 343L97.4707 278L139.471 243L201.971 293.5L165.471 343Z" fill="#36C670"/>
<path d="M156.469 381.042C156.469 382.699 155.126 384.041 153.47 384.041C151.813 384.041 150.47 382.698 150.47 381.042L150.469 381.04L150.47 381.03C150.47 381.023 150.469 381.014 150.47 381.001C150.47 380.977 150.47 380.941 150.471 380.895C150.471 380.802 150.471 380.664 150.472 380.484C150.475 380.124 150.482 379.592 150.494 378.898C150.518 377.508 150.565 375.468 150.66 372.849C150.849 367.612 151.228 360.055 151.982 350.756C152.736 341.45 153.617 333.91 154.31 328.688C154.656 326.078 154.956 324.046 155.169 322.663C155.276 321.971 155.361 321.441 155.421 321.083C155.45 320.903 155.473 320.766 155.489 320.673C155.497 320.626 155.504 320.591 155.508 320.567C155.51 320.555 155.511 320.545 155.512 320.538C155.513 320.535 155.513 320.532 155.514 320.53L155.514 320.527C155.799 318.895 157.353 317.801 158.985 318.086C160.618 318.371 161.71 319.925 161.425 321.558L161.424 321.562C161.423 321.567 161.422 321.574 161.42 321.584C161.417 321.603 161.412 321.635 161.405 321.676C161.39 321.76 161.369 321.888 161.341 322.058C161.285 322.398 161.203 322.908 161.099 323.579C160.891 324.922 160.597 326.911 160.257 329.477C159.576 334.609 158.707 342.048 157.962 351.242C157.216 360.442 156.842 367.907 156.656 373.066C156.562 375.645 156.517 377.647 156.493 379.001C156.482 379.677 156.475 380.192 156.472 380.535C156.471 380.707 156.47 380.836 156.47 380.92C156.469 380.963 156.47 380.994 156.47 381.014C156.47 381.025 156.47 381.032 156.47 381.037L156.469 381.042Z" fill="#249159"/>
<path d="M116.895 207.775C120.761 207.846 123.836 211.038 123.765 214.904C123.754 215.452 123.68 215.984 123.657 216.149C123.618 216.435 123.569 216.756 123.517 217.077C123.412 217.725 123.271 218.53 123.123 219.368C122.828 221.037 122.496 222.874 122.249 224.356C122.246 224.404 122.241 224.487 122.236 224.611C122.225 224.94 122.219 225.426 122.226 226.086C122.239 227.402 122.301 229.269 122.442 231.705C122.642 235.15 124.088 238.624 126.526 243.035C129.896 248.337 132.132 251.435 132.775 252.176C132.981 252.393 133.014 252.413 133.453 252.832C136.25 255.501 136.354 259.932 133.686 262.729C131.017 265.526 126.586 265.63 123.789 262.961C123.62 262.8 123.117 262.347 122.501 261.69L122.45 261.636L122.401 261.581C120.894 259.905 117.991 255.715 114.594 250.362L114.483 250.189L114.385 250.01C111.701 245.179 108.86 239.329 108.466 232.514C108.316 229.923 108.243 227.825 108.227 226.229C108.213 224.855 108.228 223.324 108.411 222.218L108.866 219.58C109.028 218.663 109.193 217.743 109.337 216.931C109.485 216.095 109.609 215.378 109.696 214.839C109.738 214.58 109.767 214.396 109.783 214.28C110.041 210.587 113.152 207.705 116.895 207.775ZM109.778 214.383C109.774 214.457 109.768 214.545 109.767 214.644C109.768 214.556 109.774 214.47 109.778 214.383Z" fill="#FFAF32"/>
<path d="M140.471 283.5C105.971 250 109.471 231.5 114.471 98L337.471 86.5C341.971 114.5 350.571 177 348.971 203C346.971 235.5 333.971 274.5 301.471 293.5C268.971 312.5 174.971 317 140.471 283.5Z" fill="#FFCC77"/>
<path d="M197.971 190.5C197.971 211 188.971 222 169.471 222C149.971 222 140.971 209 140.971 190.5C140.971 172 149.471 159 169.471 159C189.471 159 197.971 170 197.971 190.5Z" fill="white"/>
<path d="M288.971 191.5C288.971 212 279.655 223 259.471 223C239.286 223 229.971 210 229.971 191.5C229.971 173 238.769 160 259.471 160C280.172 160 288.971 171 288.971 191.5Z" fill="white"/>
<path d="M266.971 191C266.971 202.063 263.023 208 254.471 208C245.918 208 241.971 200.984 241.971 191C241.971 181.016 245.699 174 254.471 174C263.243 174 266.971 179.937 266.971 191Z" fill="#434142"/>
<path d="M186.971 191.004C186.971 202.067 183.023 208.004 174.471 208.004C165.918 208.004 161.971 200.988 161.971 191.004C161.971 181.02 165.699 174.004 174.471 174.004C183.243 174.004 186.971 179.94 186.971 191.004Z" fill="#434142"/>
<path d="M157.293 146.201C161.202 144.806 165.137 144.275 168.037 144.08C169.501 143.982 170.732 143.968 171.608 143.979C172.046 143.984 172.398 143.996 172.646 144.007C172.771 144.012 172.87 144.017 172.941 144.021C172.977 144.023 173.006 144.025 173.027 144.026C173.038 144.027 173.047 144.028 173.055 144.028C173.058 144.029 173.061 144.029 173.064 144.029C173.065 144.03 173.067 144.029 173.068 144.029L173.069 144.03C173.07 144.036 173.06 144.181 172.831 147.407L173.071 144.029C174.999 144.166 176.451 145.84 176.314 147.768C176.178 149.696 174.504 151.148 172.576 151.012L172.576 151.012L172.575 151.011C172.568 151.011 172.555 151.011 172.537 151.01C172.497 151.007 172.431 151.004 172.341 151C172.16 150.992 171.882 150.982 171.522 150.978C170.8 150.969 169.756 150.981 168.506 151.065C165.98 151.234 162.738 151.69 159.647 152.794C156.399 153.953 153.688 155.355 151.792 156.466C150.846 157.02 150.112 157.497 149.623 157.828C149.379 157.994 149.196 158.122 149.081 158.206C149.023 158.247 148.982 158.278 148.958 158.295C148.949 158.302 148.941 158.306 148.937 158.309L148.938 158.31L148.937 158.31C148.936 158.311 148.935 158.311 148.935 158.312L148.936 158.312C147.396 159.477 145.202 159.175 144.035 157.636C142.867 156.096 143.168 153.9 144.708 152.732L146.603 155.23C144.768 152.81 144.711 152.734 144.709 152.732L144.711 152.73C144.712 152.73 144.713 152.729 144.713 152.728C144.715 152.727 144.717 152.725 144.72 152.723C144.725 152.719 144.732 152.715 144.739 152.709C144.754 152.698 144.773 152.683 144.796 152.666C144.844 152.631 144.91 152.583 144.993 152.524C145.159 152.404 145.394 152.238 145.695 152.034C146.297 151.626 147.161 151.066 148.253 150.426C150.43 149.151 153.542 147.54 157.293 146.201ZM172.582 151.012L172.58 151.013L172.578 151.013L172.576 151.012C172.578 151.012 172.58 151.012 172.582 151.012Z" fill="#43413F"/>
<path d="M273.595 146.433C269.717 145.023 265.823 144.415 262.955 144.15C261.508 144.017 260.291 143.968 259.426 143.952C258.992 143.944 258.645 143.945 258.4 143.948C258.277 143.949 258.179 143.951 258.109 143.953C258.074 143.954 258.045 143.954 258.024 143.955C258.013 143.955 258.004 143.956 257.997 143.956C257.993 143.956 257.99 143.957 257.988 143.957C257.986 143.957 257.985 143.956 257.984 143.956L257.982 143.957C257.982 143.963 257.993 144.098 258.257 147.102L257.981 143.956C256.077 144.028 254.663 145.541 254.82 147.336C254.978 149.131 256.648 150.528 258.552 150.458L258.552 150.458L258.553 150.457C258.56 150.457 258.572 150.458 258.591 150.457C258.63 150.456 258.695 150.454 258.784 150.453C258.963 150.451 259.237 150.451 259.593 150.457C260.306 150.47 261.338 150.511 262.574 150.626C265.072 150.856 268.28 151.375 271.347 152.489C274.569 153.661 277.265 155.043 279.151 156.13C280.092 156.672 280.824 157.137 281.31 157.459C281.553 157.62 281.735 157.744 281.85 157.825C281.908 157.865 281.949 157.895 281.972 157.912C281.982 157.919 281.99 157.922 281.994 157.925L281.992 157.926L281.993 157.926C281.994 157.927 281.995 157.928 281.996 157.928L281.995 157.928C283.53 159.055 285.694 158.839 286.829 157.443C287.965 156.046 287.641 153.997 286.106 152.867L284.263 155.133C286.048 152.938 286.104 152.869 286.105 152.867L286.103 152.865C286.103 152.865 286.102 152.864 286.101 152.864C286.099 152.862 286.097 152.86 286.094 152.859C286.089 152.855 286.082 152.85 286.075 152.845C286.061 152.834 286.042 152.82 286.018 152.803C285.971 152.769 285.905 152.723 285.822 152.665C285.657 152.55 285.422 152.388 285.123 152.19C284.524 151.794 283.663 151.248 282.577 150.622C280.411 149.373 277.317 147.787 273.595 146.433ZM258.546 150.458L258.548 150.459L258.55 150.458L258.552 150.458C258.55 150.458 258.548 150.458 258.546 150.458Z" fill="#43413F"/>
<path d="M313.907 236.261C311.983 246.857 303.208 253.677 293.971 252C284.733 250.323 278.53 240.783 280.454 230.187C282.378 219.59 292.234 213.321 301.472 214.999C310.71 216.676 315.68 226.5 313.907 236.261Z" fill="#FFAF32"/>
<path d="M151.078 223.207C156.106 232.137 153.782 242.485 145.946 246.898C138.11 251.31 127.729 248.116 122.701 239.187C117.673 230.258 121.13 219.652 128.966 215.24C136.802 210.827 146.446 214.982 151.078 223.207Z" fill="#FFAF32"/>
<path d="M207.47 204C211.584 204 214.536 206.078 216.277 207.818C217.159 208.701 217.811 209.571 218.245 210.223C218.465 210.552 218.636 210.837 218.76 211.053C218.822 211.161 218.872 211.253 218.911 211.326C218.931 211.363 218.947 211.395 218.961 211.422C218.968 211.435 218.975 211.447 218.981 211.458C218.983 211.463 218.986 211.469 218.988 211.474C218.99 211.476 218.99 211.479 218.991 211.481C218.992 211.483 218.993 211.484 218.993 211.484C218.994 211.486 218.951 211.509 215.198 213.386L218.995 211.487C220.107 213.71 219.205 216.414 216.983 217.525C214.767 218.633 212.074 217.741 210.956 215.534L210.964 215.55C210.96 215.542 210.953 215.532 210.945 215.518C210.913 215.46 210.85 215.354 210.757 215.215C210.566 214.929 210.281 214.549 209.913 214.182C209.154 213.422 208.355 213 207.47 213C206.748 213 205.99 213.381 205.175 214.277C204.792 214.698 204.491 215.136 204.287 215.473C204.188 215.636 204.118 215.764 204.08 215.838C204.061 215.874 204.05 215.896 204.048 215.901C204.049 215.9 204.05 215.898 204.051 215.896C204.052 215.892 204.054 215.888 204.057 215.883C204.058 215.88 204.06 215.876 204.062 215.873C204.062 215.872 204.063 215.87 204.064 215.868C204.064 215.867 204.065 215.866 204.066 215.865L204.065 215.864C203.035 218.125 200.369 219.125 198.108 218.097C195.845 217.068 194.845 214.4 195.873 212.138L199.893 213.965C195.912 212.155 195.874 212.136 195.874 212.135C195.874 212.134 195.876 212.133 195.876 212.132C195.877 212.13 195.878 212.127 195.879 212.125C195.881 212.12 195.883 212.115 195.886 212.109C195.891 212.099 195.897 212.086 195.903 212.072C195.916 212.045 195.932 212.012 195.95 211.975C195.987 211.899 196.035 211.803 196.094 211.689C196.212 211.462 196.377 211.16 196.59 210.809C197.011 210.114 197.647 209.177 198.515 208.223C200.2 206.369 203.191 204 207.47 204Z" fill="#FFAF32"/>
<path d="M266.97 243.001C266.47 259.501 253.97 290.001 217.47 291.001C173.97 292.502 163.47 255 163.97 245C164.47 235 168.47 233.001 177.47 231.001C186.47 229.001 244.47 228.501 254.47 230.001C264.47 231.501 266.97 236.501 266.97 243.001Z" fill="#912C28"/>
<mask id="mask0_1303_2162" style="mask-type:alpha" maskUnits="userSpaceOnUse" x="163" y="229" width="104" height="63">
<path d="M266.97 243.001C266.47 259.501 253.97 290.001 217.47 291.001C173.97 292.502 163.47 255 163.97 245C164.47 235 168.47 233.001 177.47 231.001C186.47 229.001 244.47 228.501 254.47 230.001C264.47 231.501 266.97 236.501 266.97 243.001Z" fill="#D9D9D9"/>
</mask>
<g mask="url(#mask0_1303_2162)">
<path d="M270.374 296.435C267.655 310.535 246.987 318.404 224.21 314.012C201.434 309.62 183.146 295 187.893 280.53C193.971 261.999 210.385 257.355 234.471 261.999C257.248 266.392 273.092 282.336 270.374 296.435Z" fill="#F85636"/>
<path d="M247.497 225.455C244.778 239.554 225.79 247.748 205.086 243.755C184.382 239.763 167.946 225.5 172.521 210.997C178.379 192.424 193.432 187.517 215.326 191.739C236.03 195.731 250.216 211.355 247.497 225.455Z" fill="#FDFFFF"/>
</g>
<path d="M94.9707 74C94.9707 41.75 128.971 10.5 155.471 10.5C181.971 10.5 307.471 10.5 307.471 10.5C341.436 10.5 368.971 37.9226 368.971 71.75C368.971 105.577 341.436 133 307.471 133H155.471C121.505 133 94.9707 106.25 94.9707 74Z" fill="#CB6A14"/>
<rect x="337.189" y="26.3789" width="48" height="29" rx="14.5" transform="rotate(-3.24196 337.189 26.3789)" fill="#CB6A14"/>
<rect x="356.963" width="48" height="29" rx="14.5" transform="rotate(88.5961 356.963 0)" fill="#CB6A14"/>
<path d="M344.386 42.7887C357.324 40.3748 369.769 48.9063 372.183 61.8443L393.378 175.442L346.525 184.184L325.331 70.5858C322.917 57.6478 331.448 45.2026 344.386 42.7887V42.7887Z" fill="#CB6A14"/>
<path d="M129.652 44.1331C136.831 35.8493 144.828 32.086 151.1 30.4281C154.22 29.6036 156.9 29.3021 158.835 29.2093C159.804 29.1629 160.59 29.1683 161.157 29.1879C161.44 29.1977 161.669 29.2117 161.839 29.2238C161.925 29.2299 161.996 29.2355 162.051 29.2404C162.078 29.2428 162.102 29.2447 162.122 29.2466C162.132 29.2476 162.141 29.2493 162.149 29.2501C162.153 29.2505 162.157 29.2504 162.161 29.2508C162.162 29.2509 162.165 29.2514 162.165 29.2514C162.167 29.2571 162.154 29.4091 161.702 33.7006L162.17 29.2514C164.641 29.5115 166.434 31.7262 166.174 34.1977C165.914 36.6681 163.702 38.46 161.232 38.2021L161.232 38.2028C161.233 38.2029 161.235 38.2027 161.237 38.2028C161.238 38.203 161.239 38.2041 161.241 38.2042C161.231 38.2034 161.218 38.202 161.2 38.2008C161.135 38.1961 161.015 38.1887 160.845 38.1828C160.505 38.171 159.968 38.1658 159.266 38.1994C157.861 38.2667 155.817 38.4907 153.4 39.1295C148.599 40.3986 142.273 43.3124 136.453 50.0282C130.41 57.0004 127.902 63.0321 126.862 67.1348C126.339 69.1979 126.18 70.8056 126.142 71.8381C126.123 72.3546 126.134 72.7284 126.146 72.9436C126.152 73.0511 126.158 73.1197 126.161 73.1459C126.162 73.1588 126.163 73.1614 126.162 73.1535C126.161 73.1496 126.161 73.1428 126.16 73.1335C126.159 73.1289 126.158 73.1236 126.157 73.1176L126.155 73.1031H126.154C126.499 75.5618 124.787 77.8351 122.328 78.1827C119.868 78.5306 117.591 76.8179 117.243 74.3571L121.671 73.7315C117.275 74.3529 117.243 74.3544 117.242 74.3516L117.24 74.333C117.239 74.3241 117.237 74.3143 117.236 74.304C117.233 74.2833 117.23 74.2593 117.227 74.2328C117.22 74.18 117.213 74.1157 117.205 74.0402C117.19 73.8885 117.174 73.6914 117.161 73.4511C117.133 72.9707 117.118 72.3168 117.147 71.5073C117.207 69.8873 117.448 67.646 118.138 64.9231C119.525 59.4526 122.694 52.1608 129.652 44.1331Z" fill="#AC4C0E"/>
<ellipse cx="338.977" cy="192.195" rx="30" ry="19" transform="rotate(-42.018 338.977 192.195)" fill="#FFCC77"/>
<path d="M414.471 227.002L364.471 291.502C349.304 280.334 319.171 257.5 319.971 255.5C320.771 253.5 354.971 211.667 371.971 191C371.304 182.833 370.571 164.9 372.971 158.5C375.971 150.5 379.971 145.501 386.971 148C392.571 149.999 394.971 158.5 395.471 162.5C399.137 157.667 407.571 147.501 411.971 145.501C417.471 143.001 423.971 144.001 425.971 151.001C427.571 156.601 420.637 165.334 416.971 169C420.471 166.834 428.771 162.7 433.971 163.5C440.471 164.5 445.971 168.5 445.471 177C445.071 183.8 433.304 192.835 427.471 196.502C430.971 196.168 438.771 196.102 441.971 198.502C445.971 201.502 446.971 207.502 443.971 213.002C440.971 218.502 423.471 220.502 419.971 222.002C417.171 223.202 415.137 225.835 414.471 227.002Z" fill="#FFCC77"/>
<path d="M389.227 180.493C387.85 178.425 388.408 175.633 390.476 174.255C392.543 172.877 395.337 173.436 396.716 175.504L393.101 177.913C396.542 175.62 396.708 175.51 396.716 175.505L396.717 175.506L396.724 175.516C396.728 175.522 396.733 175.529 396.738 175.537C396.749 175.554 396.764 175.577 396.782 175.605C396.819 175.662 396.871 175.741 396.935 175.841C397.062 176.04 397.24 176.322 397.454 176.674C397.881 177.374 398.46 178.36 399.074 179.52C400.256 181.754 401.754 184.968 402.384 188.119C402.976 191.077 403.097 194.697 403.097 197.375C403.097 198.756 403.064 199.971 403.031 200.841C403.015 201.277 402.997 201.63 402.985 201.877C402.978 202 402.973 202.097 402.969 202.165C402.967 202.199 402.966 202.227 402.964 202.246C402.964 202.255 402.963 202.263 402.963 202.269C402.963 202.272 402.963 202.275 402.963 202.277L402.963 202.279L402.963 202.28C402.963 202.28 402.963 202.28 398.472 201.999L402.963 202.281C402.808 204.761 400.671 206.646 398.19 206.491C395.787 206.34 393.943 204.33 393.972 201.95L393.98 201.719V201.707C393.981 201.696 393.982 201.677 393.984 201.652C393.987 201.6 393.992 201.521 393.997 201.416C394.008 201.206 394.023 200.893 394.038 200.502C394.067 199.717 394.096 198.619 394.096 197.376C394.097 194.805 393.968 191.926 393.559 189.884C393.19 188.035 392.187 185.749 391.119 183.731C390.608 182.766 390.124 181.939 389.77 181.358C389.594 181.069 389.451 180.843 389.355 180.694C389.308 180.62 389.272 180.565 389.25 180.531C389.239 180.515 389.232 180.503 389.228 180.497C389.227 180.496 389.227 180.494 389.227 180.493Z" fill="#FEAE31"/>
<path d="M277.971 309.5L329.971 242.5C327.471 247.333 331.471 261.5 342.471 270.5C356.902 282.307 368.471 282 372.471 281L319.471 347L277.971 309.5Z" fill="#36C670"/>
</svg>
