<svg width="96" height="141" viewBox="0 0 96 141" fill="none" xmlns="http://www.w3.org/2000/svg">
<path d="M29.4544 8.84358C39.4731 26.8944 44.6376 36.9656 52.7793 54.4814C55.107 59.4896 52.9339 65.437 47.9257 67.7648C42.9176 70.0925 36.9702 67.9195 34.6423 62.9113C26.7218 45.8713 21.7785 36.2261 11.9672 18.5492C9.28713 13.7203 11.0292 7.63299 15.858 4.9528C20.6869 2.2726 26.7742 4.01467 29.4544 8.84358Z" fill="#439323"/>
<path d="M16.4686 32.2064C29.8166 37.9532 37.0471 41.479 48.9561 48.129C53.5368 50.687 55.1774 56.474 52.6197 61.0549C50.0617 65.6357 44.2739 67.276 39.693 64.718C28.4082 58.4165 21.7673 55.1743 8.95454 49.6579C4.13563 47.583 1.91128 41.9948 3.98603 37.1758C6.06082 32.3567 11.6495 30.1316 16.4686 32.2064Z" fill="#439323"/>
<path d="M56.1532 20.2468C56.4763 34.7758 56.276 42.8177 55.1794 56.4134C54.7576 61.643 50.1765 65.5411 44.947 65.1195C39.7173 64.6977 35.8191 60.1158 36.2409 54.8861C37.2801 42.003 37.4677 34.6153 37.1575 20.6689C37.0409 15.4236 41.1984 11.0772 46.4438 10.9605C51.6892 10.8438 56.0365 15.0014 56.1532 20.2468Z" fill="#439323"/>
<path d="M76.7104 61.4587C73.7104 53.4587 59.7104 34.4587 38.7104 44.9587C35.7109 46.4584 25.3104 51.557 25.7104 65.957C26.2104 83.957 38.7104 98.457 55.7104 116.957C72.7104 135.457 87.2104 142.957 91.7104 139.957C96.2104 136.957 95.7104 127.457 94.2104 116.957C92.7104 106.457 79.7104 69.4587 76.7104 61.4587Z" fill="#FD7700"/>
<path d="M52.8417 65.4961C57.8831 62.3121 61.9177 60.7945 64.8175 60.0895C66.2654 59.7375 67.4209 59.5905 68.266 59.5373C68.688 59.5108 69.0311 59.5081 69.2932 59.5144C69.4242 59.5175 69.5356 59.5231 69.6255 59.5291C69.6702 59.5321 69.71 59.5345 69.7444 59.5375C69.7616 59.539 69.7775 59.5416 69.7921 59.543C69.7994 59.5438 69.8066 59.5434 69.8132 59.544C69.8165 59.5444 69.8203 59.5456 69.8234 59.5459C69.8246 59.546 69.8261 59.546 69.8269 59.5461C69.8291 59.5463 69.8312 59.5466 69.4947 62.6404L69.8318 59.5466C71.7534 59.7557 73.142 61.4836 72.9328 63.4053C72.73 65.2666 71.1027 66.6269 69.2543 66.5201L69.0917 66.5072C69.0971 66.5077 69.102 66.509 69.1068 66.5095C69.1163 66.5104 69.1248 66.5109 69.1319 66.5115C69.1458 66.5127 69.1549 66.5131 69.1592 66.5134C69.1543 66.5131 69.1429 66.5124 69.1254 66.512C69.0636 66.5105 68.923 66.51 68.7053 66.5237C68.2705 66.5511 67.5211 66.6365 66.4708 66.8919C64.3743 67.4016 61.0377 68.5988 56.5795 71.4145C52.0466 74.2773 49.7867 76.4447 48.702 77.7388C48.1637 78.381 47.9233 78.7982 47.8356 78.9693C47.8225 78.9949 47.8116 79.0152 47.8048 79.0299C47.2889 80.7592 45.524 81.8307 43.7277 81.45C41.8369 81.049 40.6288 79.1913 41.0296 77.3005L44.1519 77.9622C41.1019 77.3152 41.0316 77.2968 41.0308 77.293L41.0364 77.2702C41.0387 77.2601 41.0404 77.2495 41.0428 77.239C41.0477 77.2178 41.0531 77.1954 41.0587 77.1726C41.0701 77.1268 41.0835 77.0778 41.0982 77.0258C41.1278 76.9221 41.1642 76.8061 41.21 76.6787C41.3017 76.4231 41.4294 76.1219 41.605 75.7788C41.9564 75.0927 42.4989 74.2418 43.3368 73.2422C45.0057 71.251 47.875 68.633 52.8417 65.4961ZM47.8446 78.8875C47.847 78.8783 47.85 78.8689 47.8525 78.8589C47.8564 78.843 47.8603 78.8262 47.8644 78.8085C47.8664 78.7996 47.8685 78.7902 47.8706 78.7809C47.8716 78.7762 47.8724 78.7714 47.8734 78.7666C47.874 78.7642 47.8757 78.7606 47.876 78.7594L47.8746 78.7591C47.8654 78.8023 47.8554 78.8451 47.8446 78.8875Z" fill="#F45D02"/>
<path d="M70.1402 105.916C70.1385 105.918 70.1384 105.92 70.1384 105.92C69.0713 107.523 66.9083 107.964 65.2989 106.903C63.6851 105.839 63.2392 103.668 64.3031 102.054L67.0144 103.842C64.3032 102.054 64.3037 102.053 64.3042 102.052L64.3136 102.038C64.318 102.031 64.3235 102.023 64.3294 102.015C64.3411 101.997 64.3557 101.975 64.3734 101.949C64.4091 101.897 64.4579 101.829 64.5176 101.746C64.6369 101.579 64.8042 101.352 65.0179 101.08C65.444 100.537 66.062 99.8042 66.8585 99.0018C68.4284 97.4201 70.8145 95.4439 73.911 94.2066C76.8688 93.0247 79.4411 92.7075 81.3354 92.7073C82.2795 92.7072 83.0523 92.7861 83.6179 92.8729C83.9006 92.9164 84.1323 92.9624 84.3089 93.0016C84.3974 93.0212 84.4724 93.0386 84.5329 93.054C84.5631 93.0617 84.5898 93.0692 84.6129 93.0754C84.6244 93.0785 84.6354 93.0808 84.6451 93.0835C84.6499 93.0848 84.6546 93.0864 84.659 93.0876L84.6684 93.09C84.6698 93.0904 84.6712 93.0911 83.7579 96.2932L84.6715 93.0915C86.5301 93.6217 87.6071 95.5577 87.0774 97.4163C86.5637 99.2172 84.7298 100.285 82.9256 99.8675L82.7571 99.824C82.759 99.8245 82.7612 99.8257 82.7629 99.8262L82.7897 99.8329C82.7992 99.8354 82.8056 99.8375 82.809 99.8384C82.8156 99.8401 82.8102 99.8389 82.7934 99.8352C82.7592 99.8276 82.6785 99.8103 82.5553 99.7913C82.3083 99.7534 81.8924 99.7072 81.3364 99.7073C80.2299 99.7073 78.5508 99.8907 76.5083 100.707C74.6048 101.467 72.9986 102.753 71.8266 103.934C71.2523 104.512 70.8118 105.036 70.5222 105.404C70.3781 105.588 70.2734 105.731 70.2099 105.819C70.1785 105.863 70.1568 105.893 70.1462 105.909C70.1463 105.909 70.146 105.909 70.1449 105.909C70.1431 105.911 70.1417 105.914 70.1399 105.917L70.1402 105.916Z" fill="#F45D02"/>
</svg>
