<svg width="118" height="164" viewBox="0 0 118 164" fill="none" xmlns="http://www.w3.org/2000/svg">
<path d="M112.278 81.1284C116.778 56.6284 116.278 41.1284 89.2778 29.1284C85.111 27.4617 75.1773 24.3284 68.7773 25.1284C60.7773 26.1284 54.7773 34.1284 48.7773 48.1284C42.7773 62.1284 31.7778 75.6284 19.7778 86.1284C7.77778 96.6284 -12.7222 131.128 10.7778 150.128C34.2778 169.128 54.2778 166.128 73.7778 153.628C93.2778 141.128 107.778 105.628 112.278 81.1284Z" fill="#704AAD"/>
<path d="M52.1005 82.1978C49.6474 85.4694 46.1791 89.1101 43.4348 91.8423C42.0413 93.2296 40.793 94.4234 39.8924 95.2712C39.4418 95.6954 39.077 96.0344 38.8228 96.2689C38.6959 96.386 38.5958 96.4766 38.527 96.5395C38.4927 96.5709 38.4655 96.5961 38.4469 96.6131C38.4378 96.6213 38.4307 96.6277 38.4255 96.6323C38.4229 96.6347 38.4209 96.6372 38.4193 96.6386C38.4185 96.6394 38.4173 96.6399 38.4167 96.6403L38.2402 96.7923C36.3983 98.3006 33.6769 98.1153 32.0592 96.3322C30.3894 94.4915 30.5283 91.6457 32.3688 89.9758C32.3693 89.9754 32.3705 89.9747 32.372 89.9734C32.3751 89.9706 32.3799 89.9655 32.387 89.9591C32.4012 89.9461 32.4236 89.9255 32.4534 89.8982C32.5129 89.8438 32.6029 89.7619 32.7197 89.6541C32.9539 89.4381 33.297 89.1195 33.7236 88.7179C34.5779 87.9137 35.7635 86.7797 37.0847 85.4644C39.7696 82.7915 42.8543 79.5262 44.8997 76.7984C47.0069 73.9881 49.1356 70.6 50.7642 67.8566C51.5714 66.4968 52.2415 65.3187 52.7088 64.4838C52.9421 64.0669 53.1248 63.7362 53.2474 63.5122C53.3085 63.4004 53.355 63.3152 53.3853 63.2592C53.4005 63.2313 53.4111 63.2099 53.4182 63.1969C53.4216 63.1905 53.4249 63.186 53.4263 63.1834C53.4269 63.1822 53.4279 63.1814 53.4281 63.1811C54.6031 60.9915 57.3299 60.1681 59.5198 61.3428C61.7098 62.5177 62.533 65.2458 61.3581 67.4359L61.3557 67.439C61.3549 67.4406 61.3544 67.443 61.353 67.4455C61.3502 67.4508 61.3459 67.458 61.341 67.4671C61.3312 67.4854 61.3169 67.5112 61.2988 67.5445C61.2627 67.6114 61.2104 67.7081 61.1427 67.8317C61.0075 68.079 60.8114 68.4354 60.5626 68.8799C60.0655 69.768 59.3567 71.0132 58.5033 72.4507C56.8106 75.3022 54.4919 79.0085 52.1005 82.1978Z" fill="#965EBD"/>
<path d="M108.019 0.0790836C102.019 -0.720916 95.186 4.74575 92.5193 7.57908C87.5191 5.08004 80.0193 3.07812 76.5193 6.57812C73.0193 10.0781 72.0193 22.5781 74.0193 28.5781C76.0193 34.5781 84.8289 38.6541 90.0193 36.5781C92.5195 35.5781 99.0195 35.0227 101.019 36.5781C106.165 40.5806 113.019 43.0781 116.519 35.5781C119.319 29.5781 114.019 23.4115 111.019 21.0781C112.019 19.5781 114.519 15.7781 116.519 12.5781C119.019 8.57812 115.519 1.07908 108.019 0.0790836Z" fill="#429423"/>
</svg>
