<svg width="89" height="106" viewBox="0 0 89 106" fill="none" xmlns="http://www.w3.org/2000/svg">
<path d="M14.1615 18.452C6.49488 18.952 -6.33845 23.252 3.66155 36.452C11.661 42.9509 12.1621 42.4531 21.6621 45.4531C31.1621 48.4531 23.6621 25.9531 25.6621 20.952C26.8621 17.352 18.4951 17.7853 14.1615 18.452Z" fill="#439323"/>
<rect x="19" width="30" height="47" rx="15" fill="#439323"/>
<ellipse cx="46" cy="68" rx="43" ry="38" fill="#FD7700"/>
<path d="M40.7397 53.8777C43.9066 51.0875 47.1018 49.2054 49.5049 48.0188C50.7102 47.4236 51.7281 46.998 52.4592 46.7162C52.8248 46.5752 53.1197 46.4696 53.3321 46.3968C53.4383 46.3604 53.5245 46.3325 53.5881 46.3119C53.6197 46.3017 53.6461 46.2936 53.6666 46.2872C53.6769 46.2839 53.6857 46.2801 53.6931 46.2778C53.6967 46.2767 53.7008 46.2762 53.7037 46.2753C53.705 46.2749 53.7062 46.2739 53.7073 46.2735L53.7095 46.273C53.7106 46.2738 53.7263 46.3237 54.4657 48.7471L53.7108 46.2732C55.5597 45.7092 57.5159 46.7504 58.0798 48.5993C58.6428 50.4448 57.6061 52.397 55.7637 52.9651L55.7408 52.9727C55.715 52.9811 55.6678 52.9962 55.6014 53.019C55.4679 53.0647 55.2553 53.1398 54.9767 53.2472C54.4188 53.4623 53.5972 53.8048 52.6036 54.2955C50.6086 55.2807 47.9646 56.8411 45.3669 59.1299C42.6984 61.4811 41.2277 63.3521 40.4516 64.5365C40.0633 65.1293 39.8464 65.5546 39.7388 65.7878C39.6852 65.9041 39.6581 65.9737 39.6508 65.9933C39.6515 65.9912 39.6525 65.988 39.6537 65.9846C39.6562 65.9769 39.6593 65.966 39.6635 65.9522C39.6658 65.9451 39.6687 65.9367 39.6713 65.9279L39.6773 65.9077C39.6777 65.9064 39.6782 65.9036 39.6784 65.9029L39.677 65.9028C39.1365 67.7568 37.1976 68.823 35.3425 68.2844C33.4863 67.7453 32.4187 65.8038 32.9577 63.9475L35.9592 64.8188C32.9819 63.954 32.9578 63.9453 32.9581 63.9434C32.9583 63.9427 32.9595 63.9407 32.9599 63.9394C32.9606 63.9367 32.9612 63.934 32.962 63.9312C32.9636 63.9257 32.9659 63.9197 32.9677 63.9137C32.9713 63.9018 32.9747 63.8887 32.9789 63.8752C32.9873 63.8481 32.9976 63.8178 33.0086 63.7843C33.0308 63.7174 33.0585 63.638 33.0927 63.5465C33.161 63.3633 33.255 63.1322 33.3821 62.8566C33.6366 62.3047 34.0221 61.5774 34.5967 60.7003C35.7469 58.9447 37.6436 56.6056 40.7397 53.8777Z" fill="#F45D02"/>
</svg>
