<svg width="93" height="112" viewBox="0 0 93 112" fill="none" xmlns="http://www.w3.org/2000/svg">
<path d="M76.5104 33.1431C58.5104 25.6431 60.5104 28.1431 35.0104 37.1431C18.5111 35.1416 0.510448 50.6445 0.0104477 71.1445C-0.489552 91.6445 17.0104 110.145 41.0104 111.645C65.0105 113.145 80.5104 101.145 88.0104 87.6445C95.5104 74.1445 94.5104 40.6431 76.5104 33.1431Z" fill="#F1431A"/>
<path d="M40.2446 35.7405C40.2446 39.3303 37.3341 42.241 33.7443 42.241C30.2668 42.2408 27.4268 39.5095 27.2527 36.0751L27.2447 35.7407L27.2449 35.7348C27.2449 35.7307 27.2446 35.7243 27.2446 35.7163C27.2446 35.7 27.2451 35.6757 27.2451 35.644C27.2451 35.5803 27.245 35.4861 27.245 35.3645C27.245 35.1209 27.2447 34.766 27.2447 34.3238C27.2447 33.4396 27.2443 32.2033 27.2443 30.7953C27.2443 27.9791 27.2443 24.4754 27.2443 21.7255C27.2443 18.6896 27.5147 14.7155 27.766 11.6408C27.8941 10.0737 28.0223 8.68469 28.1183 7.68674C28.1663 7.18738 28.206 6.7843 28.2343 6.50449C28.2484 6.36484 28.2602 6.25551 28.268 6.18026C28.2718 6.14263 28.2747 6.11287 28.2768 6.09263C28.2779 6.08264 28.279 6.07486 28.2796 6.06927L28.2799 6.06049L28.2809 6.05955C28.6573 2.4896 31.8559 -0.0992613 35.4258 0.276951C38.9958 0.653354 41.5847 3.85196 41.2084 7.42188C41.2084 7.42249 41.2085 7.42417 41.2083 7.42579C41.2079 7.42931 41.2076 7.43538 41.2067 7.44332C41.2051 7.4593 41.2027 7.48418 41.1993 7.51733C41.1924 7.58362 41.1817 7.68337 41.1686 7.81332C41.1422 8.0736 41.1044 8.45491 41.0587 8.93031C40.9672 9.88254 40.8454 11.2089 40.7235 12.7003C40.4748 15.7427 40.2442 19.2613 40.2442 21.7253C40.2442 24.4752 40.2451 27.9788 40.2451 30.7951C40.2451 32.2034 40.2446 33.4403 40.2446 34.3246C40.2446 34.7665 40.2449 35.1207 40.2449 35.3643C40.2449 35.486 40.245 35.58 40.245 35.6437C40.245 35.6755 40.2445 35.6997 40.2445 35.716C40.2445 35.7241 40.2448 35.7305 40.2448 35.7346L40.2446 35.7405Z" fill="#36A035"/>
<path d="M35.5364 36.5706C32.1304 37.7047 28.4497 35.863 27.3155 32.457C26.1817 29.0512 28.0237 25.3713 31.4294 24.2371L31.4313 24.2366C31.432 24.2363 31.4327 24.2352 31.4339 24.2348C31.4371 24.2338 31.4425 24.2326 31.4489 24.2305C31.4618 24.2262 31.481 24.2194 31.5062 24.211C31.5567 24.1941 31.6314 24.1692 31.7278 24.137C31.9209 24.0727 32.202 23.9798 32.5524 23.8632C33.2536 23.6297 34.2344 23.3026 35.351 22.9308C37.584 22.1873 40.3621 21.2623 42.5425 20.5362C45.0476 19.7021 48.3614 18.8923 50.8814 18.3186C52.1763 18.0237 53.3283 17.7764 54.1568 17.6026C54.5715 17.5156 54.9071 17.4473 55.141 17.3997C55.258 17.3759 55.3502 17.3574 55.4138 17.3446C55.4455 17.3382 55.4702 17.3329 55.4877 17.3294C55.4961 17.3277 55.5029 17.3266 55.5079 17.3256C55.5104 17.3251 55.5129 17.324 55.5145 17.3237L55.5166 17.3241L55.5176 17.3239C59.0388 16.6255 62.4592 18.9137 63.1576 22.4348C63.8559 25.9561 61.5678 29.3765 58.0466 30.0749L58.0447 30.0754C58.0422 30.0759 58.0375 30.077 58.0313 30.0782C58.0189 30.0807 57.9992 30.0847 57.9727 30.09C57.9196 30.1007 57.839 30.1171 57.7336 30.1385C57.5226 30.1814 57.2119 30.2446 56.8252 30.3257C56.0504 30.4882 54.9737 30.7196 53.7678 30.9942C51.2852 31.5594 48.5056 32.2527 46.6497 32.8707C44.4693 33.5967 41.6913 34.5217 39.4582 35.2653C38.3416 35.6371 37.3606 35.9632 36.6594 36.1967C36.3089 36.3134 36.0282 36.4072 35.8351 36.4715C35.7386 36.5036 35.664 36.5286 35.6135 36.5454C35.5882 36.5538 35.5687 36.5597 35.5558 36.564C35.5494 36.5662 35.5443 36.5682 35.5411 36.5693L35.5364 36.5706Z" fill="#36A035"/>
<path d="M36.8534 34.0729C40.2328 35.2837 41.991 39.0051 40.7801 42.3846C39.5691 45.7637 35.8481 47.5211 32.4688 46.3104L32.467 46.3097C32.4663 46.3094 32.4651 46.3099 32.4639 46.3095C32.4607 46.3084 32.4557 46.3059 32.4494 46.3036C32.4366 46.299 32.4172 46.2926 32.3922 46.2836C32.3421 46.2656 32.268 46.2392 32.1723 46.2049C31.9807 46.1363 31.7022 46.0358 31.3545 45.9112C30.6588 45.6619 29.6854 45.3136 28.5775 44.9167C26.3618 44.1228 23.6054 43.1351 21.442 42.36C18.9563 41.4694 15.8496 40.0603 13.5132 38.9557C12.3125 38.3881 11.2537 37.8714 10.4946 37.4965C10.1147 37.3089 9.80848 37.1554 9.5951 37.0484C9.48837 36.9949 9.40446 36.9526 9.34653 36.9234C9.31761 36.9088 9.29491 36.8977 9.27905 36.8897C9.27135 36.8858 9.26529 36.8825 9.26078 36.8802C9.25851 36.879 9.25586 36.8783 9.25445 36.8776L9.253 36.876L9.2521 36.8756C6.05107 35.2508 4.77328 31.339 6.39803 28.138C8.02286 24.9369 11.9346 23.6591 15.1357 25.2839L15.1375 25.2846C15.1398 25.2858 15.1441 25.2878 15.1498 25.2907C15.1611 25.2964 15.179 25.3054 15.2031 25.3176C15.2515 25.342 15.325 25.3789 15.4211 25.4271C15.6136 25.5236 15.897 25.6657 16.2514 25.8407C16.9611 26.1912 17.951 26.6741 19.0691 27.2027C21.3709 28.2909 23.9855 29.4617 25.8269 30.1215C27.9904 30.8967 30.7467 31.8843 32.9624 32.6782C34.0703 33.0751 35.0434 33.4244 35.7391 33.6736C36.0868 33.7982 36.3656 33.8978 36.5572 33.9664C36.653 34.0007 36.7271 34.0272 36.7772 34.0451C36.8022 34.0541 36.8212 34.0615 36.834 34.0661C36.8403 34.0683 36.8456 34.0699 36.8489 34.071L36.8534 34.0729Z" fill="#36A035"/>
<path d="M26.9277 44.6124C22.8501 43.8856 20.1333 39.9915 20.8597 35.9138C21.5636 31.9635 25.2408 29.2904 29.1772 29.7875L29.5593 29.846L29.5605 29.8453L29.5795 29.8495C29.5929 29.8519 29.6131 29.855 29.6393 29.8597C29.6917 29.8691 29.7692 29.8827 29.8693 29.9006C30.0697 29.9363 30.3609 29.9888 30.7246 30.0537C31.4521 30.1833 32.4701 30.3642 33.6287 30.5707C35.9458 30.9836 38.8284 31.4973 41.0908 31.9005C43.7422 32.3729 47.0808 33.2556 49.5718 33.9556C50.857 34.3167 51.9925 34.6509 52.8076 34.895C53.2158 35.0173 53.5459 35.1177 53.7759 35.1881C53.8908 35.2233 53.9811 35.2509 54.0438 35.2703C54.075 35.28 54.0993 35.2881 54.1167 35.2934C54.1252 35.2961 54.1324 35.2975 54.1374 35.299C54.14 35.2998 54.1423 35.301 54.1439 35.3015L54.1468 35.3021C54.1471 35.3023 54.1395 35.3273 51.9164 42.4631L54.1477 35.3023C58.1021 36.5345 60.3092 40.7399 59.0772 44.6944C57.8451 48.6488 53.6397 50.8559 49.6852 49.6239L49.6842 49.6237C49.6819 49.623 49.678 49.6208 49.6722 49.619C49.6605 49.6154 49.6416 49.6095 49.6161 49.6016C49.5651 49.5859 49.4866 49.5627 49.3846 49.5314C49.1804 49.4689 48.8796 49.3773 48.5034 49.2646C47.7491 49.0387 46.698 48.7293 45.5139 48.3966C43.0657 47.7087 40.3338 47.002 38.4599 46.668C36.1974 46.2649 33.3141 45.751 30.9969 45.3381C29.8385 45.1316 28.8214 44.9499 28.0939 44.8203C27.7301 44.7554 27.4379 44.7036 27.2375 44.6679C27.1374 44.6501 27.0598 44.6364 27.0075 44.6271C26.9814 44.6224 26.9611 44.6192 26.9477 44.6169L26.9277 44.6124Z" fill="#36A035"/>
<path d="M27.7291 59.7054C25.3848 62.4241 21.2802 62.7277 18.5615 60.3835C15.8432 58.0392 15.5402 53.9352 17.8842 51.2166L17.8855 51.2151C17.886 51.2146 17.886 51.2133 17.8868 51.2123C17.889 51.2098 17.8931 51.206 17.8975 51.2009C17.9064 51.1906 17.9194 51.1749 17.9368 51.1548C17.9715 51.1145 18.0228 51.0548 18.0892 50.9777C18.2221 50.8236 18.4159 50.5999 18.6571 50.3202C19.1397 49.7605 19.8145 48.9772 20.5831 48.0859C22.12 46.3034 24.0321 44.086 25.5329 42.3456C27.2571 40.3459 29.6883 37.953 31.5587 36.1694C32.5198 35.2529 33.3825 34.4505 34.0051 33.8768C34.3167 33.5896 34.5699 33.359 34.7464 33.1983C34.8347 33.1179 34.9043 33.0548 34.9524 33.0113C34.9764 32.9895 34.9949 32.9723 35.0081 32.9604C35.0145 32.9546 35.0198 32.9502 35.0235 32.9468C35.0254 32.9451 35.027 32.9429 35.0282 32.9418L35.0303 32.941L35.0309 32.9403C37.6974 30.5369 41.807 30.75 44.2105 33.4164C46.614 36.0829 46.4009 40.1925 43.7345 42.596L43.7332 42.5974C43.7312 42.5992 43.7278 42.6025 43.7231 42.6067C43.7137 42.6152 43.6989 42.6287 43.6788 42.6469C43.6387 42.6832 43.5778 42.7386 43.4983 42.811C43.3391 42.9559 43.1046 43.1693 42.814 43.4371C42.2319 43.9735 41.4256 44.7238 40.5305 45.5773C38.6879 47.3344 36.6558 49.3537 35.3785 50.8351C33.8778 52.5755 31.9657 54.7929 30.4287 56.5754C29.6602 57.4667 28.9846 58.2493 28.502 58.809C28.2608 59.0887 28.0677 59.3131 27.9348 59.4673C27.8684 59.5443 27.8171 59.604 27.7824 59.6443C27.765 59.6644 27.7513 59.6795 27.7424 59.6898C27.738 59.6949 27.7347 59.6993 27.7324 59.7019L27.7291 59.7054Z" fill="#36A035"/>
</svg>
